<svg width="29" height="29" viewBox="0 0 29 29" fill="none" xmlns="http://www.w3.org/2000/svg">
<path d="M28.7111 4.29306L24.7111 0.293056C24.5235 0.105415 24.269 -5.59213e-09 24.0036 0C23.7382 5.59213e-09 23.4837 0.105415 23.2961 0.293056C23.1085 0.480697 23.0031 0.735192 23.0031 1.00056C23.0031 1.26592 23.1085 1.52042 23.2961 1.70806L23.4811 1.89181L16.5849 7.06431L11.8074 8.02056C11.6139 8.05931 11.4361 8.15407 11.2961 8.29306L0.878609 18.7081C0.316043 19.2707 0 20.0337 0 20.8293C0 21.6249 0.316043 22.388 0.878609 22.9506L6.05361 28.1256C6.61621 28.6881 7.37924 29.0042 8.17486 29.0042C8.97048 29.0042 9.73351 28.6881 10.2961 28.1256L20.7111 17.7118C20.8504 17.572 20.9452 17.3941 20.9836 17.2006L21.9399 12.4231L27.1124 5.52681L27.2961 5.71181C27.389 5.80472 27.4993 5.87842 27.6207 5.9287C27.7421 5.97898 27.8722 6.00486 28.0036 6.00486C28.135 6.00486 28.2651 5.97898 28.3865 5.9287C28.5079 5.87842 28.6182 5.80472 28.7111 5.71181C28.804 5.6189 28.8777 5.5086 28.928 5.3872C28.9783 5.26581 29.0042 5.1357 29.0042 5.00431C29.0042 4.87291 28.9783 4.7428 28.928 4.62141C28.8777 4.50002 28.804 4.38972 28.7111 4.29681V4.29306ZM10.0036 12.4143L16.5899 19.0006L11.0036 24.5868L4.41736 18.0006L10.0036 12.4143ZM8.17486 27.0006C8.04365 27.0009 7.91367 26.9752 7.79244 26.925C7.67122 26.8748 7.56115 26.8011 7.46861 26.7081L2.29611 21.5356C2.10871 21.348 2.00345 21.0938 2.00345 20.8287C2.00345 20.5636 2.10871 20.3093 2.29611 20.1218L3.00361 19.4143L9.58986 26.0006L8.87861 26.7081C8.69183 26.8946 8.43886 26.9998 8.17486 27.0006ZM20.2036 11.4006C20.1139 11.5198 20.0523 11.6578 20.0236 11.8043L19.0824 16.5081L18.0036 17.5868L11.4174 11.0006L12.4961 9.92181L17.1999 8.98056C17.3463 8.95184 17.4844 8.8903 17.6036 8.80056L24.9099 3.32056L25.6836 4.09431L20.2036 11.4006Z" fill="#11224E"/>
</svg>
