<svg width="27" height="27" viewBox="0 0 27 27" fill="none" xmlns="http://www.w3.org/2000/svg">
<path d="M3 14.9993C3 14.1153 3.35119 13.2674 3.97631 12.6423C4.60143 12.0172 5.44928 11.666 6.33333 11.666H20.3333C21.2174 11.666 22.0652 12.0172 22.6904 12.6423C23.3155 13.2674 23.6667 14.1153 23.6667 14.9993V25.666H3V14.9993Z" stroke="#11224E" stroke-width="2" stroke-linecap="round" stroke-linejoin="round"/>
<path d="M3 17.16L5.99867 19.0933C6.64493 19.5101 7.39765 19.7318 8.16667 19.7318C8.93568 19.7318 9.6884 19.5101 10.3347 19.0933L11.1653 18.56C11.8116 18.1432 12.5643 17.9215 13.3333 17.9215C14.1024 17.9215 14.8551 18.1432 15.5013 18.56L16.332 19.0933C16.9783 19.5101 17.731 19.7318 18.5 19.7318C19.269 19.7318 20.0217 19.5101 20.668 19.0933L23.6667 17.16M25.6667 25.66H1M13.3333 7.44V11.6667M13.3333 1L15.2187 2.88533C15.5917 3.25824 15.8457 3.73339 15.9487 4.2507C16.0517 4.768 15.9989 5.30422 15.7971 5.79154C15.5953 6.27886 15.2535 6.69538 14.8149 6.98843C14.3764 7.28149 13.8608 7.4379 13.3333 7.4379C12.8059 7.4379 12.2903 7.28149 11.8517 6.98843C11.4132 6.69538 11.0714 6.27886 10.8696 5.79154C10.6678 5.30422 10.615 4.768 10.718 4.2507C10.8209 3.73339 11.075 3.25824 11.448 2.88533L13.3333 1Z" stroke="#11224E" stroke-width="2" stroke-linecap="round" stroke-linejoin="round"/>
</svg>
