<svg width="24" height="24" viewBox="0 0 24 24" fill="none" xmlns="http://www.w3.org/2000/svg">
<path d="M11.6667 2C10.3972 2 9.14021 2.25004 7.96739 2.73583C6.79458 3.22163 5.72893 3.93367 4.8313 4.8313C3.93367 5.72893 3.22163 6.79458 2.73583 7.96739C2.25004 9.14021 2 10.3972 2 11.6667C2 12.9361 2.25004 14.1931 2.73583 15.3659C3.22163 16.5388 3.93367 17.6044 4.8313 18.502C5.72893 19.3997 6.79458 20.1117 7.96739 20.5975C9.14021 21.0833 10.3972 21.3333 11.6667 21.3333C14.2304 21.3333 16.6892 20.3149 18.502 18.502C20.3149 16.6892 21.3333 14.2304 21.3333 11.6667C21.3333 9.10291 20.3149 6.64415 18.502 4.8313C16.6892 3.01845 14.2304 2 11.6667 2ZM0 11.6667C0 8.57247 1.22916 5.60501 3.41709 3.41709C5.60501 1.22916 8.57247 0 11.6667 0C14.7609 0 17.7283 1.22916 19.9162 3.41709C22.1042 5.60501 23.3333 8.57247 23.3333 11.6667C23.3333 14.7609 22.1042 17.7283 19.9162 19.9162C17.7283 22.1042 14.7609 23.3333 11.6667 23.3333C8.57247 23.3333 5.60501 22.1042 3.41709 19.9162C1.22916 17.7283 0 14.7609 0 11.6667ZM11.6667 5.33333C11.9319 5.33333 12.1862 5.43869 12.3738 5.62623C12.5613 5.81376 12.6667 6.06812 12.6667 6.33333V11.2533L15.04 13.6267C15.1382 13.7182 15.2171 13.8286 15.2717 13.9513C15.3264 14.0739 15.3558 14.2064 15.3581 14.3406C15.3605 14.4749 15.3358 14.6083 15.2855 14.7328C15.2352 14.8573 15.1603 14.9704 15.0654 15.0654C14.9704 15.1603 14.8573 15.2352 14.7328 15.2855C14.6083 15.3358 14.4749 15.3605 14.3406 15.3581C14.2064 15.3558 14.0739 15.3264 13.9513 15.2717C13.8286 15.2171 13.7182 15.1382 13.6267 15.04L10.96 12.3733C10.7724 12.186 10.6669 11.9318 10.6667 11.6667V6.33333C10.6667 6.06812 10.772 5.81376 10.9596 5.62623C11.1471 5.43869 11.4015 5.33333 11.6667 5.33333Z" fill="#11224E"/>
</svg>
