<svg width="29" height="21" viewBox="0 0 29 21" fill="none" xmlns="http://www.w3.org/2000/svg">
<path d="M11.0483 3.54667C11.0483 2.14 12.3149 1 13.8803 1C15.4443 1 16.7123 2.14 16.7123 3.54667C16.7123 4.20667 16.4723 4.80933 16.0563 5.26267C15.2603 6.12933 14.0696 7.00267 14.0696 8.128V8.50667M14.0696 8.50667C15.0559 8.49099 16.0237 8.77456 16.8456 9.32L26.7563 16C28.4976 17.1747 27.5736 19.6667 25.3963 19.6667H3.27095C1.11628 19.6667 0.177614 17.22 1.87361 16.0267L11.3349 9.372C12.138 8.81441 13.0907 8.51233 14.0683 8.50533L14.0696 8.50667Z" stroke="#11224E" stroke-width="2" stroke-linecap="round"/>
</svg>
