<svg width="28" height="22" viewBox="0 0 28 22" fill="none" xmlns="http://www.w3.org/2000/svg">
<path fill-rule="evenodd" clip-rule="evenodd" d="M7.59414 4.91713V12.0147L19.7541 15.3315V1.60033L7.59414 4.91713ZM5.99414 12.0147C5.99407 12.3658 6.10948 12.7072 6.32257 12.9862C6.53566 13.2652 6.83462 13.4664 7.17334 13.5587L19.3333 16.8755C19.5708 16.9403 19.8201 16.9493 20.0617 16.902C20.3032 16.8547 20.5306 16.7523 20.7262 16.6027C20.9217 16.4532 21.0801 16.2605 21.189 16.0398C21.2979 15.819 21.3544 15.5761 21.3541 15.3299V1.60033C21.3542 1.35429 21.2975 1.11156 21.1885 0.891004C21.0795 0.670445 20.921 0.478 20.7255 0.328628C20.53 0.179255 20.3027 0.0769806 20.0613 0.0297537C19.8198 -0.0174732 19.5707 -0.00838001 19.3333 0.0563267L7.17334 3.37313C6.83462 3.46546 6.53566 3.66664 6.32257 3.94566C6.10948 4.22468 5.99407 4.56604 5.99414 4.91713V12.0147Z" fill="#11224E"/>
<path fill-rule="evenodd" clip-rule="evenodd" d="M2.8834 11.9857H6.1538V4.9457H2.8786C2.05094 5.93216 1.59768 7.1789 1.59856 8.46658C1.59944 9.75426 2.0544 11.0004 2.8834 11.9857ZM6.1538 13.5857C6.57815 13.5857 6.98511 13.4171 7.28517 13.1171C7.58523 12.817 7.7538 12.41 7.7538 11.9857V4.9457C7.7538 4.52136 7.58523 4.11439 7.28517 3.81433C6.98511 3.51427 6.57815 3.3457 6.1538 3.3457H2.5586C2.43881 3.3456 2.32026 3.36995 2.21021 3.41727C2.10016 3.4646 2.00093 3.53389 1.9186 3.6209C-0.644599 6.3265 -0.633399 10.5857 1.9154 13.3041C1.99869 13.3925 2.09908 13.4631 2.21047 13.5115C2.32187 13.5599 2.44194 13.5851 2.5634 13.5857H6.1538Z" fill="#11224E"/>
<path fill-rule="evenodd" clip-rule="evenodd" d="M8.98447 14.4978L4.96847 14.0498L3.40367 20.3058H7.62127L8.98447 14.4978ZM5.14447 12.461C4.75979 12.4179 4.37256 12.5158 4.05453 12.7365C3.7365 12.9571 3.50924 13.2856 3.41487 13.661L1.85167 19.917C1.79257 20.1529 1.78803 20.3992 1.8384 20.6371C1.88876 20.8751 1.99271 21.0984 2.14233 21.2901C2.29196 21.4819 2.48333 21.637 2.70189 21.7436C2.92045 21.8503 3.16046 21.9058 3.40367 21.9058H7.62127C7.98229 21.9059 8.33274 21.7839 8.61566 21.5597C8.89859 21.3354 9.09736 21.0221 9.17967 20.6706L10.5429 14.8626C10.5947 14.6421 10.5992 14.4132 10.556 14.1909C10.5128 13.9685 10.4229 13.7579 10.2922 13.573C10.1615 13.388 9.99305 13.2329 9.79796 13.1179C9.60287 13.0028 9.38558 12.9306 9.16047 12.9058L5.14447 12.461ZM27.1397 2.26258C27.2571 2.43913 27.2997 2.6551 27.258 2.86301C27.2163 3.07092 27.0937 3.25377 26.9173 3.37138L24.5173 4.97138C24.43 5.03328 24.3311 5.07704 24.2266 5.10006C24.1221 5.12308 24.014 5.12489 23.9087 5.10538C23.8035 5.08587 23.7032 5.04544 23.6139 4.98649C23.5246 4.92754 23.448 4.85126 23.3887 4.76217C23.3293 4.67308 23.2885 4.57299 23.2686 4.46784C23.2486 4.36268 23.25 4.25459 23.2726 4.14997C23.2951 4.04534 23.3385 3.94632 23.4 3.85875C23.4616 3.77118 23.5401 3.69686 23.6309 3.64018L26.0309 2.04018C26.2074 1.92272 26.4234 1.88017 26.6313 1.92188C26.8392 1.96358 27.0221 2.08612 27.1397 2.26258ZM23.2741 8.46578C23.2741 8.2536 23.3584 8.05012 23.5084 7.90009C23.6584 7.75006 23.8619 7.66578 24.0741 7.66578H26.4741C26.6862 7.66578 26.8897 7.75006 27.0398 7.90009C27.1898 8.05012 27.2741 8.2536 27.2741 8.46578C27.2741 8.67795 27.1898 8.88143 27.0398 9.03146C26.8897 9.18149 26.6862 9.26578 26.4741 9.26578H24.0741C23.8619 9.26578 23.6584 9.18149 23.5084 9.03146C23.3584 8.88143 23.2741 8.67795 23.2741 8.46578ZM23.4613 12.0338C23.529 11.9534 23.6119 11.8871 23.7053 11.8387C23.7986 11.7903 23.9006 11.7609 24.0054 11.752C24.1101 11.743 24.2156 11.7549 24.3158 11.7867C24.416 11.8186 24.5089 11.87 24.5893 11.9378L26.7973 13.7922C26.9509 13.9311 27.0446 14.1243 27.0587 14.3309C27.0728 14.5375 27.0062 14.7416 26.873 14.9002C26.7397 15.0587 26.5501 15.1594 26.3441 15.1811C26.1381 15.2027 25.9318 15.1436 25.7685 15.0162L23.5605 13.1602C23.398 13.0239 23.2964 12.8287 23.2778 12.6175C23.2592 12.4063 23.3252 12.1963 23.4613 12.0338Z" fill="#11224E"/>
</svg>
