<svg width="21" height="26" viewBox="0 0 21 26" fill="none" xmlns="http://www.w3.org/2000/svg">
<path d="M15.6667 5.572C15.6667 3.04667 13.28 1 10.3333 1C7.38667 1 5 3.04667 5 5.572V12.428C5 14.9533 7.38667 17 10.3333 17C13.28 17 15.6667 14.9533 15.6667 12.428V5.572Z" stroke="#11224E" stroke-width="2" stroke-linecap="round" stroke-linejoin="round"/>
<path d="M1 11.667C1 12.8927 1.24141 14.1063 1.71046 15.2387C2.1795 16.3711 2.86699 17.4 3.73367 18.2667C4.60035 19.1333 5.62925 19.8208 6.76162 20.2899C7.89399 20.7589 9.10766 21.0003 10.3333 21.0003M10.3333 21.0003C11.559 21.0003 12.7727 20.7589 13.905 20.2899C15.0374 19.8208 16.0663 19.1333 16.933 18.2667C17.7997 17.4 18.4872 16.3711 18.9562 15.2387C19.4253 14.1063 19.6667 12.8927 19.6667 11.667M10.3333 21.0003V25.0003M5 25.0003H15.6667" stroke="#11224E" stroke-width="2" stroke-linecap="round" stroke-linejoin="round"/>
</svg>
