<svg width="29" height="21" viewBox="0 0 29 21" fill="none" xmlns="http://www.w3.org/2000/svg">
<path d="M5.74133 18.3337H22.9253C24.1828 18.3337 25.3888 17.8341 26.278 16.945C27.1671 16.0558 27.6667 14.8498 27.6667 13.5923V10.3337C27.6667 9.62641 27.3857 8.94814 26.8856 8.44804C26.3855 7.94794 25.7072 7.66699 25 7.66699C24.2928 7.66699 23.6145 7.94794 23.1144 8.44804C22.6143 8.94814 22.3333 9.62641 22.3333 10.3337V11.9337C22.3333 12.2166 22.221 12.4879 22.0209 12.6879C21.8209 12.8879 21.5496 13.0003 21.2667 13.0003H7.4C7.1171 13.0003 6.84579 12.8879 6.64575 12.6879C6.44571 12.4879 6.33333 12.2166 6.33333 11.9337V10.3337C6.33333 9.62641 6.05238 8.94814 5.55228 8.44804C5.05219 7.94794 4.37391 7.66699 3.66667 7.66699C2.95942 7.66699 2.28115 7.94794 1.78105 8.44804C1.28095 8.94814 1 9.62641 1 10.3337V13.5923C1 14.8498 1.49953 16.0558 2.3887 16.945C3.27788 17.8341 4.48385 18.3337 5.74133 18.3337Z" stroke="#11224E" stroke-width="2"/>
<path d="M25.0013 7.66667C25.0013 6.42667 25.0013 5.808 24.8986 5.29333C24.6929 4.25868 24.1849 3.30827 23.439 2.56233C22.693 1.81639 21.7426 1.30842 20.708 1.10267C20.1933 1 19.5746 1 18.3346 1H10.3346C9.09464 1 8.47597 1 7.9613 1.10267C6.92664 1.30842 5.97624 1.81639 5.2303 2.56233C4.48436 3.30827 3.97639 4.25868 3.77064 5.29333C3.66797 5.808 3.66797 6.42667 3.66797 7.66667" stroke="#11224E" stroke-width="2"/>
<path d="M25.0013 19.6663V18.333M3.66797 19.6663V18.333" stroke="#11224E" stroke-width="2" stroke-linecap="round"/>
</svg>
