<svg width="79" height="79" viewBox="0 0 79 79" fill="none" xmlns="http://www.w3.org/2000/svg">
<path d="M35.8491 2.61032C37.6967 1.09311 40.359 1.09311 42.2065 2.61032L47.5215 6.97492C48.4963 7.77546 49.7373 8.1787 50.9966 8.10405L57.8619 7.69706C60.2484 7.55558 62.4022 9.12042 63.0051 11.4338L64.7396 18.0889C65.0577 19.3096 65.8247 20.3653 66.8873 21.045L72.6807 24.7511C74.6946 26.0394 75.5172 28.5713 74.6452 30.7973L72.1366 37.2009C71.6765 38.3754 71.6765 39.6803 72.1366 40.8548L74.6452 47.2583C75.5172 49.4843 74.6946 52.0163 72.6807 53.3046L66.8873 57.0107C65.8247 57.6904 65.0577 58.7461 64.7396 59.9667L63.0051 66.6218C62.4022 68.9352 60.2484 70.5001 57.8619 70.3586L50.9966 69.9516C49.7373 69.877 48.4963 70.2802 47.5215 71.0807L42.2065 75.4453C40.359 76.9626 37.6967 76.9626 35.8491 75.4453L30.5342 71.0807C29.5593 70.2802 28.3183 69.877 27.0591 69.9516L20.1938 70.3586C17.8073 70.5001 15.6535 68.9352 15.0505 66.6218L13.3161 59.9667C12.998 58.7461 12.231 57.6904 11.1684 57.0107L5.37499 53.3046C3.36111 52.0163 2.53843 49.4843 3.41045 47.2583L5.91902 40.8548C6.37914 39.6803 6.37914 38.3754 5.91902 37.2009L3.41045 30.7973C2.53843 28.5713 3.36111 26.0394 5.37499 24.7511L11.1684 21.045C12.231 20.3653 12.998 19.3096 13.3161 18.0889L15.0505 11.4338C15.6535 9.12042 17.8073 7.55558 20.1938 7.69706L27.0591 8.10405C28.3183 8.1787 29.5593 7.77546 30.5342 6.97492L35.8491 2.61032Z" fill="#67E1AC"/>
<path d="M26.7712 39.0198L35.9865 48.2352L51.4457 28.8774" stroke="white" stroke-width="5" stroke-linecap="round"/>
</svg>
