<svg width="24" height="24" viewBox="0 0 24 24" fill="none" xmlns="http://www.w3.org/2000/svg">
<path d="M18.5 16.5605C18.5 16.4603 18.4909 16.3874 18.4727 16.3418C18.4544 16.2962 18.3724 16.221 18.2266 16.1162C18.0807 16.0114 17.8962 15.8975 17.6729 15.7744C17.4495 15.6514 17.2331 15.5306 17.0234 15.4121C16.8138 15.2936 16.6064 15.1797 16.4014 15.0703C16.1963 14.9609 16.0664 14.8926 16.0117 14.8652C15.9661 14.8379 15.8796 14.7786 15.752 14.6875C15.6243 14.5964 15.5104 14.528 15.4102 14.4824C15.3099 14.4368 15.2142 14.4141 15.123 14.4141C14.9863 14.4141 14.82 14.5075 14.624 14.6943C14.4281 14.8812 14.248 15.0863 14.084 15.3096C13.9199 15.5329 13.7445 15.738 13.5576 15.9248C13.3708 16.1117 13.2181 16.2051 13.0996 16.2051C13.0358 16.2051 12.9606 16.1891 12.874 16.1572C12.7874 16.1253 12.7168 16.0957 12.6621 16.0684C12.6074 16.041 12.5299 15.9977 12.4297 15.9385C12.3294 15.8792 12.2656 15.8405 12.2383 15.8223C11.3359 15.321 10.5612 14.7445 9.91406 14.0928C9.26693 13.4411 8.68815 12.6641 8.17773 11.7617C8.15951 11.7344 8.12077 11.6706 8.06152 11.5703C8.00228 11.4701 7.95898 11.3926 7.93164 11.3379C7.9043 11.2832 7.87467 11.2126 7.84277 11.126C7.81087 11.0394 7.79492 10.9642 7.79492 10.9004C7.79492 10.7819 7.88835 10.6292 8.0752 10.4424C8.26204 10.2555 8.46712 10.0801 8.69043 9.91602C8.91374 9.75195 9.11882 9.57194 9.30566 9.37598C9.49251 9.18001 9.58594 9.01367 9.58594 8.87695C9.58594 8.78581 9.56315 8.6901 9.51758 8.58984C9.472 8.48958 9.40365 8.37565 9.3125 8.24805C9.22135 8.12044 9.16211 8.03385 9.13477 7.98828C9.10742 7.93359 9.03906 7.80371 8.92969 7.59863C8.82031 7.39355 8.70638 7.1862 8.58789 6.97656C8.4694 6.76693 8.34863 6.55046 8.22559 6.32715C8.10254 6.10384 7.98861 5.91927 7.88379 5.77344C7.77897 5.6276 7.70378 5.54557 7.6582 5.52734C7.61263 5.50911 7.53971 5.5 7.43945 5.5C7.00195 5.5 6.54167 5.60026 6.05859 5.80078C5.63932 5.99219 5.27474 6.42285 4.96484 7.09277C4.65495 7.7627 4.5 8.35742 4.5 8.87695C4.5 9.02279 4.51139 9.17773 4.53418 9.3418C4.55697 9.50586 4.57975 9.64486 4.60254 9.75879C4.62533 9.87272 4.66634 10.0231 4.72559 10.21C4.78483 10.3968 4.8304 10.5312 4.8623 10.6133C4.89421 10.6953 4.95117 10.8457 5.0332 11.0645C5.11523 11.2832 5.16536 11.4199 5.18359 11.4746C5.73047 12.9694 6.71712 14.43 8.14355 15.8564C9.56999 17.2829 11.0306 18.2695 12.5254 18.8164C12.5801 18.8346 12.7168 18.8848 12.9355 18.9668C13.1543 19.0488 13.3047 19.1058 13.3867 19.1377C13.4688 19.1696 13.6032 19.2152 13.79 19.2744C13.9769 19.3337 14.1273 19.3747 14.2412 19.3975C14.3551 19.4202 14.4941 19.443 14.6582 19.4658C14.8223 19.4886 14.9772 19.5 15.123 19.5C15.6426 19.5 16.2373 19.3451 16.9072 19.0352C17.5771 18.7253 18.0078 18.3607 18.1992 17.9414C18.3997 17.4583 18.5 16.998 18.5 16.5605ZM22 5.9375V19.0625C22 20.1471 21.6149 21.0745 20.8447 21.8447C20.0745 22.6149 19.1471 23 18.0625 23H4.9375C3.85286 23 2.92546 22.6149 2.15527 21.8447C1.38509 21.0745 1 20.1471 1 19.0625V5.9375C1 4.85286 1.38509 3.92546 2.15527 3.15527C2.92546 2.38509 3.85286 2 4.9375 2H18.0625C19.1471 2 20.0745 2.38509 20.8447 3.15527C21.6149 3.92546 22 4.85286 22 5.9375Z" fill="#2E5283" fill-opacity="0.55"/>
</svg>
