<svg width="24" height="24" viewBox="0 0 24 24" fill="none" xmlns="http://www.w3.org/2000/svg">
<path d="M3.2 21C2.595 21 2.07727 20.7921 1.6468 20.3763C1.21633 19.9605 1.00073 19.4601 1 18.875V6.125C1 5.54062 1.2156 5.04054 1.6468 4.62475C2.078 4.20896 2.59573 4.00071 3.2 4H20.8C21.405 4 21.9231 4.20825 22.3543 4.62475C22.7855 5.04125 23.0007 5.54133 23 6.125V18.875C23 19.4594 22.7848 19.9598 22.3543 20.3763C21.9238 20.7928 21.4057 21.0007 20.8 21H3.2ZM12 13.3766C12.0917 13.3766 12.1881 13.3631 12.2893 13.3362C12.3905 13.3093 12.4866 13.2696 12.5775 13.2172L20.36 8.51562C20.5067 8.42708 20.6167 8.31658 20.69 8.18412C20.7633 8.05167 20.8 7.9054 20.8 7.74531C20.8 7.39115 20.6442 7.12552 20.3325 6.94844C20.0208 6.77135 19.7 6.78021 19.37 6.975L12 11.4375L4.63 6.975C4.3 6.78021 3.97917 6.77596 3.6675 6.96225C3.35583 7.14854 3.2 7.40956 3.2 7.74531C3.2 7.9224 3.23667 8.07752 3.31 8.21069C3.38333 8.34385 3.49333 8.4455 3.64 8.51562L11.4225 13.2172C11.5142 13.2703 11.6106 13.3103 11.7118 13.3372C11.813 13.3642 11.9091 13.3773 12 13.3766Z" fill="#2E5283" fill-opacity="0.55"/>
</svg>
