<svg width="28" height="28" viewBox="0 0 28 28" fill="none" xmlns="http://www.w3.org/2000/svg">
<path d="M14.0002 2.3335C7.56016 2.3335 2.3335 7.56016 2.3335 14.0002C2.3335 20.4402 7.56016 25.6668 14.0002 25.6668C20.4402 25.6668 25.6668 20.4402 25.6668 14.0002C25.6668 7.56016 20.4402 2.3335 14.0002 2.3335ZM19.4135 10.2668C19.2385 12.1102 18.4802 16.5902 18.0952 18.6552C17.9318 19.5302 17.6052 19.8218 17.3018 19.8568C16.6252 19.9152 16.1118 19.4135 15.4585 18.9818C14.4318 18.3052 13.8485 17.8852 12.8568 17.2318C11.7018 16.4735 12.4485 16.0535 13.1135 15.3768C13.2885 15.2018 16.2752 12.4835 16.3335 12.2385C16.3416 12.2014 16.3405 12.1629 16.3304 12.1263C16.3202 12.0897 16.3012 12.0561 16.2752 12.0285C16.2052 11.9702 16.1118 11.9935 16.0302 12.0052C15.9252 12.0285 14.2918 13.1135 11.1068 15.2602C10.6402 15.5752 10.2202 15.7385 9.84683 15.7268C9.42683 15.7152 8.6335 15.4935 8.0385 15.2952C7.3035 15.0618 6.73183 14.9335 6.7785 14.5252C6.80183 14.3152 7.0935 14.1052 7.64183 13.8835C11.0485 12.4018 13.3118 11.4218 14.4435 10.9552C17.6868 9.60183 18.3518 9.3685 18.7952 9.3685C18.8885 9.3685 19.1102 9.39183 19.2502 9.5085C19.3668 9.60183 19.4018 9.73016 19.4135 9.8235C19.4018 9.8935 19.4252 10.1035 19.4135 10.2668Z" fill="#2E5283" fill-opacity="0.55"/>
</svg>
