<svg width="24" height="24" viewBox="0 0 24 24" fill="none" xmlns="http://www.w3.org/2000/svg">
<g clip-path="url(#clip0_116_512)">
<path d="M2.40625 3.85254C1 5.26758 1 7.54512 1 12.0957V12.9043C1 17.4549 1 19.7324 2.40625 21.1475C3.8125 22.5625 6.07589 22.5625 10.5982 22.5625H11.3973C15.9241 22.5625 18.1875 22.5625 19.5893 21.1475C20.9911 19.7324 21 17.4549 21 12.9043V12.1002C21 7.54512 21 5.26758 19.5938 3.85703C18.1875 2.44648 15.9241 2.4375 11.4018 2.4375H10.5982C6.07589 2.4375 3.8125 2.4375 2.40625 3.85254ZM4.375 8.56035H6.65625C6.73214 12.4012 8.41518 14.0273 9.75 14.3643V8.56035H11.9018V11.8711C13.2188 11.7273 14.6027 10.218 15.067 8.56035H17.2188C17.0446 9.42285 16.692 10.2359 16.1875 10.9547C15.683 11.6734 15.0402 12.2799 14.2902 12.7336C15.125 13.1514 15.8616 13.7398 16.4509 14.4631C17.0402 15.1863 17.4732 16.0309 17.7143 16.9338H15.3482C15.1295 16.1477 14.6875 15.4469 14.0714 14.9123C13.4554 14.3777 12.7009 14.0408 11.8973 13.942V16.9338H11.6384C7.08036 16.9338 4.48214 13.7893 4.37054 8.55586L4.375 8.56035Z" fill="#2E5283" fill-opacity="0.55"/>
</g>
<defs>
<clipPath id="clip0_116_512">
<rect width="24" height="24" fill="white"/>
</clipPath>
</defs>
</svg>
