<svg width="28" height="28" viewBox="0 0 28 28" fill="none" xmlns="http://www.w3.org/2000/svg">
<path fill-rule="evenodd" clip-rule="evenodd" d="M14.0002 2.3335C7.55666 2.3335 2.3335 7.55666 2.3335 14.0002C2.3335 16.2052 2.946 18.2702 4.01116 20.0295L2.9705 23.5668C2.91074 23.7699 2.90681 23.9854 2.95911 24.1905C3.01142 24.3957 3.11802 24.5829 3.26772 24.7326C3.41741 24.8823 3.60467 24.9889 3.80982 25.0412C4.01496 25.0935 4.2304 25.0896 4.4335 25.0298L7.97083 23.9892C9.78936 25.0893 11.8748 25.6695 14.0002 25.6668C20.4437 25.6668 25.6668 20.4437 25.6668 14.0002C25.6668 7.55666 20.4437 2.3335 14.0002 2.3335ZM11.3612 16.6403C13.7213 18.9993 15.9742 19.3108 16.7698 19.34C17.9797 19.3843 19.158 18.4603 19.6165 17.3882C19.6739 17.2547 19.6946 17.1083 19.6766 16.9641C19.6585 16.82 19.6024 16.6832 19.5138 16.568C18.8745 15.7513 18.01 15.1645 17.1653 14.5812C16.9891 14.4589 16.7723 14.4098 16.5605 14.4442C16.3488 14.4786 16.1587 14.5938 16.0302 14.7655L15.3302 15.833C15.2932 15.8902 15.2358 15.9311 15.1698 15.9476C15.1037 15.9641 15.0338 15.9548 14.9743 15.9217C14.4995 15.6498 13.8077 15.1878 13.3107 14.6908C12.8137 14.1938 12.3797 13.5335 12.1358 13.089C12.1063 13.0324 12.098 12.9671 12.1123 12.9048C12.1267 12.8426 12.1627 12.7875 12.214 12.7495L13.292 11.9492C13.4463 11.8157 13.5459 11.63 13.5717 11.4276C13.5976 11.2252 13.5478 11.0205 13.432 10.8525C12.9093 10.0872 12.3003 9.11416 11.4172 8.469C11.3029 8.38693 11.1695 8.33575 11.0297 8.32043C10.8898 8.3051 10.7485 8.32613 10.6192 8.3815C9.54583 8.84116 8.61716 10.0195 8.6615 11.2317C8.69066 12.0273 9.00216 14.2802 11.3612 16.6403Z" fill="#2E5283" fill-opacity="0.55"/>
</svg>
