<svg width="154" height="30" viewBox="0 0 154 30" fill="none" xmlns="http://www.w3.org/2000/svg">
<path d="M148.927 13.7334H148.086L147.999 13.7627H147.796C147.651 13.8213 147.506 13.8506 147.361 13.8506L146.926 13.9679C146.723 14.0265 146.578 14.0851 146.491 14.1144C146.172 14.2023 145.911 14.3196 145.65 14.4075C145.505 14.4661 145.389 14.5247 145.273 14.554L145.215 14.5833H145.186C145.157 14.6126 145.157 14.6126 145.128 14.6126V14.6419C144.896 14.7299 144.577 14.8764 144.142 15.0816V20.3863C144.983 20.2689 145.795 20.0931 146.607 19.8587L148.115 19.3312L148.26 19.2725C148.405 19.1847 148.521 19.1553 148.608 19.126L148.927 18.9208L149.246 18.7449L149.478 18.6278L149.681 18.4813C149.681 18.4519 149.681 18.4519 149.71 18.4519C149.739 18.4519 149.739 18.4519 149.739 18.4226L150 18.1882L150.319 17.8659L150.348 17.8072L150.377 17.7779C150.406 17.69 150.464 17.6607 150.493 17.6313L150.638 17.3089C150.638 17.2796 150.638 17.2796 150.667 17.2796V17.2503L150.725 17.0159C150.754 16.9279 150.783 16.84 150.783 16.7521C150.783 16.7228 150.783 16.7228 150.812 16.7228V16.3711L150.783 16.0194L150.754 15.7556C150.725 15.6677 150.667 15.5212 150.638 15.316C150.522 14.9936 150.406 14.7299 150.29 14.554C150.261 14.5247 150.232 14.4661 150.203 14.4075C150.174 14.3782 150.116 14.3489 150.087 14.2609C150.058 14.2609 150.029 14.2316 150 14.2023L149.884 14.1144L149.855 14.0851C149.855 14.0558 149.884 14.0851 149.942 14.1144L149.797 14.0265L149.623 13.9092C149.594 13.9092 149.565 13.9092 149.536 13.8799H149.478L149.072 13.7627H148.956C148.956 13.7334 148.956 13.7334 148.927 13.7334ZM151.508 19.6535L151.392 19.8294L151.247 19.9759C151.015 20.2104 150.841 20.3863 150.696 20.4741L150.406 20.7086L150.319 20.7673L150.261 20.8258L150.087 20.9138L149.942 21.0017L149.797 21.1189C149.768 21.1482 149.71 21.1775 149.652 21.2069L149.507 21.2947L149.188 21.4121L148.898 21.5586C148.753 21.6464 148.608 21.7051 148.434 21.7344C148.231 21.8223 148.115 21.8516 148.028 21.8809C147.883 21.9103 147.796 21.9688 147.709 21.9981C147.796 21.9688 147.912 21.9396 148.057 21.9103L148.231 21.8516L148.434 21.7931L148.666 21.7051C148.782 21.6757 148.869 21.6464 148.956 21.6172C149.072 21.5879 149.275 21.4999 149.536 21.3534L149.71 21.2947L149.855 21.2362C149.913 21.1775 150.029 21.1189 150.174 21.031L150.261 21.0017L150.348 20.943C150.377 20.9138 150.406 20.8845 150.493 20.8552L150.638 20.738L150.812 20.6206C151.073 20.4156 151.276 20.2689 151.421 20.1224L151.566 20.0052L151.711 19.8587L151.827 19.6829C151.885 19.6242 151.943 19.5657 151.972 19.5364L152.233 19.2432C152.32 19.126 152.407 19.0088 152.436 18.9208C152.494 18.8623 152.552 18.7449 152.639 18.5984L152.813 18.3054L152.871 18.1296L152.958 17.983L152.987 17.9244L153.016 17.8365C153.045 17.8072 153.045 17.7779 153.045 17.69L153.103 17.5434L153.161 17.4262C153.19 17.3676 153.19 17.2796 153.19 17.1624C153.248 16.9866 153.277 16.84 153.277 16.6935C153.306 16.5469 153.306 16.4297 153.306 16.3418C153.306 16.2832 153.277 16.2246 153.248 16.1659C153.219 16.1073 153.161 16.078 153.103 16.078C152.958 16.078 152.871 16.1366 152.871 16.2832V16.3418C152.871 16.4297 152.871 16.5176 152.842 16.6642V16.84L152.813 17.0452C152.784 17.1331 152.784 17.221 152.784 17.3382L152.697 17.5727V17.6607L152.668 17.7192L152.639 17.7779L152.61 17.8659C152.581 17.983 152.523 18.0709 152.494 18.1589L152.378 18.4519L152.291 18.5984L152.204 18.7743L151.972 19.0673L151.769 19.3605C151.711 19.4484 151.624 19.5364 151.508 19.6535ZM151.305 0.72081C151.247 0.662195 151.189 0.632886 151.131 0.662195H151.044C151.015 0.691502 150.928 0.691502 150.783 0.691502C150.696 0.72081 150.58 0.750116 150.377 0.779424L150.145 0.808734L149.884 0.867348L149.304 0.984578L148.666 1.16042C148.202 1.27765 147.738 1.42419 147.274 1.60004L146.578 1.83449L146.259 1.98104L145.94 2.09827L145.621 2.2448L145.331 2.39135L144.78 2.65511L144.548 2.74304L144.345 2.86026L143.997 3.06542L143.707 3.21197C143.794 3.18265 143.881 3.15334 143.997 3.06542C144.084 3.03611 144.2 3.00681 144.345 2.91889L144.577 2.83096L144.809 2.71373L145.07 2.5965L145.36 2.47928L145.679 2.36203L145.998 2.27412C146.259 2.1862 146.462 2.09827 146.665 2.03965L147.013 1.92242L147.361 1.83449C147.97 1.68796 148.434 1.57073 148.753 1.51212L149.391 1.39489L149.681 1.33627C149.797 1.30696 149.884 1.30696 149.971 1.30696C150.116 1.27765 150.261 1.27765 150.464 1.24835L150.667 1.21904L150.841 1.18973C150.957 1.18973 151.044 1.18973 151.073 1.16042H151.16L151.392 0.896656C151.392 0.808734 151.363 0.750116 151.305 0.72081ZM144.113 5.73242C144.113 6.64096 144.113 7.52018 144.113 8.3701V9.8648L144.142 11.3595C145.099 10.8613 146.462 10.5682 148.173 10.5389C149.884 10.5096 151.305 11.0957 152.407 12.3266C153.306 13.4989 153.77 14.7885 153.799 16.1952C153.828 17.6607 153.393 18.9501 152.465 20.0346C151.421 21.2069 149.913 22.1155 147.97 22.7309C146.404 23.2291 144.664 23.4929 142.721 23.5808C142.17 23.6101 141.735 23.4049 141.474 22.9654C141.213 22.5843 141.156 22.1446 141.3 21.6464V21.5879C141.271 20.4448 141.271 18.3932 141.271 15.4919C141.011 15.2867 140.837 15.0229 140.749 14.7006C140.575 14.0851 140.749 13.5576 141.242 13.1473V7.10988C140.72 6.84612 140.372 6.46511 140.227 5.90825C140.083 5.32211 140.227 4.79458 140.692 4.35496C142.837 2.2155 146.114 0.779424 150.551 0.0467333C151.015 -0.0411903 151.45 -0.0118811 151.827 0.193271C152.262 0.398425 152.523 0.750116 152.639 1.21904C152.726 1.65865 152.668 2.09827 152.465 2.53788C152.204 2.97749 151.885 3.24127 151.45 3.32919C148.898 3.76881 146.491 4.5308 144.229 5.6738C144.2 5.70312 144.142 5.70312 144.113 5.73242Z" fill="#11224E"/>
<path d="M128.257 20.0639C127.938 19.7414 127.793 19.3899 127.793 18.9501C127.793 18.5106 127.938 18.1589 128.257 17.8657C128.576 17.602 128.924 17.4262 129.359 17.3968C129.678 17.3675 130.026 17.3968 130.403 17.4262L133.882 3.4171C134.114 2.53786 134.666 2.15687 135.535 2.30341C136.434 2.44995 136.898 2.97749 136.927 3.82741L137.014 5.02901L137.072 6.25994C137.217 8.83902 137.449 12.4732 137.739 17.1331C137.884 19.4777 137.971 21.2655 138.058 22.467C138.174 24.46 138.29 26.3064 138.377 28.0356C138.406 28.5044 138.261 28.8855 137.971 29.1785C137.71 29.4424 137.362 29.5595 136.927 29.5595C136.492 29.5595 136.144 29.4424 135.854 29.1785C135.506 28.8855 135.332 28.5044 135.303 28.0356C135.216 27.0098 135.188 26.1892 135.158 25.603C135.129 25.2806 135.129 24.9876 135.1 24.7237L135.071 24.4014L135.042 24.1083C135.014 23.6101 134.955 23.1119 134.926 22.6137C134.84 22.555 134.752 22.467 134.607 22.3205L134.318 22.0568C134.288 22.0274 134.23 21.9688 134.085 21.8809C133.94 21.7929 133.854 21.7051 133.796 21.6757L133.419 21.4706L132.839 21.1775L132.665 21.1189L132.288 22.6428C132.172 23.1119 131.911 23.4343 131.534 23.6101C131.215 23.786 130.838 23.8153 130.432 23.6979C130.026 23.5808 129.707 23.3756 129.504 23.0532C129.243 22.6722 129.185 22.262 129.301 21.8223L129.475 21.1482L129.62 20.4741C129.504 20.5035 129.417 20.5328 129.359 20.5328C128.953 20.5621 128.576 20.3863 128.257 20.0639ZM134.521 3.62226C134.578 3.76879 134.666 3.79811 134.81 3.76879C134.84 3.76879 134.869 3.76879 134.897 3.73948H135.158C135.274 3.73948 135.39 3.76879 135.506 3.82741C135.622 3.91534 135.738 4.03256 135.825 4.20842L135.854 4.29632V4.38425L135.883 4.41357V4.5308C135.912 4.67733 135.941 4.82386 135.941 4.91179C135.97 4.99971 135.97 5.14626 135.999 5.32209L136.028 5.7617C136.086 6.02548 136.115 6.31856 136.115 6.64094L136.202 7.57879C136.347 9.22002 136.463 10.8612 136.579 12.5318C136.55 10.8612 136.492 9.22002 136.434 7.54949V7.08055L136.405 6.61164L136.347 5.7324C136.347 5.52725 136.318 5.23417 136.289 4.88248C136.289 4.70663 136.289 4.5601 136.26 4.47217V4.32564L136.231 4.29632V4.17909L136.202 4.09117C136.115 3.79811 135.941 3.59295 135.738 3.47571C135.564 3.35848 135.39 3.29987 135.188 3.29987C135.043 3.27057 134.926 3.27057 134.84 3.29987C134.781 3.29987 134.723 3.29987 134.695 3.32918C134.549 3.35848 134.492 3.47571 134.521 3.62226ZM131.273 9.39585C131.244 9.33725 131.244 9.27863 131.273 9.22002L131.563 7.9891C131.621 7.84257 131.708 7.81324 131.853 7.84257C131.998 7.87187 132.056 7.9891 132.027 8.13563L131.708 9.33725C131.679 9.45448 131.592 9.5131 131.476 9.5131C131.447 9.5131 131.447 9.5131 131.418 9.48378C131.36 9.45448 131.302 9.42518 131.273 9.39585ZM129.794 15.9901H129.736C129.591 15.9608 129.533 15.8435 129.562 15.697L131.099 9.89409C131.128 9.74756 131.215 9.68893 131.36 9.71826C131.505 9.74756 131.563 9.86479 131.534 10.0113L130.026 15.8435C129.997 15.8729 129.968 15.9315 129.939 15.9608C129.881 15.9901 129.823 15.9901 129.794 15.9901ZM134.695 18.6278L134.433 14.0265L133.941 16.0487L133.419 18.0709L133.999 18.3054C134.201 18.3932 134.404 18.4813 134.549 18.5691C134.578 18.5691 134.607 18.5984 134.695 18.6278Z" fill="#11224E"/>
<path d="M114.804 23.6101C114.427 23.786 114.05 23.8153 113.644 23.6981C113.239 23.6101 112.948 23.3758 112.745 23.0534C112.514 22.7017 112.485 22.2913 112.659 21.8518L119.038 3.35857C119.27 2.6845 119.792 2.30349 120.604 2.24487C121.416 2.18627 121.88 2.56725 122.025 3.35857C123.156 10.2166 125.07 16.1953 127.767 21.3242C127.97 21.7344 127.999 22.1448 127.854 22.555C127.709 22.936 127.477 23.2292 127.129 23.4343C126.752 23.6688 126.404 23.7566 126.027 23.6688C125.621 23.5808 125.302 23.3464 125.099 22.9067C123.04 19.0675 121.387 14.642 120.14 9.6011C118.893 13.2646 117.385 17.6313 115.645 22.6724C115.5 23.1119 115.21 23.4343 114.804 23.6101ZM118.719 6.96342L113.413 22.1741C113.354 22.262 113.354 22.3207 113.413 22.4085C113.441 22.4672 113.499 22.4965 113.586 22.5258C113.732 22.5843 113.847 22.5258 113.934 22.35L118.719 6.96342Z" fill="#11224E"/>
<path d="M109.679 19.8586C110.056 20.2983 110.23 20.8258 110.23 21.4706C110.23 22.1153 110.056 22.6428 109.679 23.0532C109.302 23.4928 108.809 23.6979 108.229 23.6979C107.62 23.6979 107.156 23.4928 106.779 23.0532C106.402 22.6428 106.199 22.1153 106.199 21.4706C106.199 20.8258 106.402 20.2983 106.779 19.8586C107.156 19.4483 107.62 19.2432 108.229 19.2432C108.809 19.2432 109.302 19.4483 109.679 19.8586ZM109.563 21.8809L109.621 21.7342L109.65 21.5877V21.4119C109.65 21.324 109.65 21.2654 109.621 21.236L109.534 20.9137C109.505 20.8258 109.476 20.7965 109.447 20.7671C109.418 20.6793 109.36 20.65 109.331 20.6206L109.128 20.3569L108.867 20.1811C108.751 20.0931 108.664 20.0637 108.606 20.0344L108.49 20.0052C108.461 19.9759 108.403 19.9759 108.374 19.9759L108.258 19.9466H108.113C108.084 19.9466 108.084 19.9466 108.055 19.9759H107.968C107.939 19.9759 107.939 19.9759 107.939 20.0052C107.794 20.0344 107.765 20.1224 107.794 20.2689C107.852 20.4154 107.939 20.4448 108.084 20.4154C108.113 20.4154 108.113 20.4154 108.142 20.3861H108.171L108.2 20.3569H108.374L108.403 20.3861H108.49L108.606 20.4154L108.693 20.4741C108.78 20.5035 108.867 20.5328 108.925 20.6206C108.983 20.65 109.07 20.7085 109.157 20.7965L109.244 20.8843L109.302 20.943L109.331 21.031C109.36 21.0602 109.418 21.1482 109.447 21.2947L109.476 21.3534V21.4119L109.505 21.4999V21.5586C109.505 21.7051 109.505 21.7929 109.476 21.8516L109.389 22.0859L109.36 22.174L109.302 22.2911L109.215 22.4085C109.186 22.467 109.157 22.5257 109.128 22.555C109.157 22.5257 109.186 22.467 109.215 22.4376L109.273 22.3791L109.331 22.2911C109.36 22.2618 109.36 22.2326 109.389 22.2033L109.447 22.1153C109.476 22.0859 109.534 21.9981 109.563 21.8809Z" fill="#11224E"/>
<path d="M103.41 5.73242C103.729 6.0255 103.874 6.4065 103.874 6.84611C103.874 7.28573 103.729 7.69603 103.41 8.01842C103.091 8.3701 102.743 8.51665 102.337 8.48733C100.887 8.3408 99.7562 8.22357 98.9733 8.19427C98.5672 13.9679 98.4803 18.6278 98.7122 22.174C98.7412 22.6722 98.5962 23.0826 98.2773 23.3756C97.9873 23.6394 97.6393 23.7566 97.2043 23.7566C96.7693 23.7566 96.4214 23.6394 96.1024 23.3756C95.7544 23.0826 95.5514 22.6722 95.5223 22.174C95.2905 18.4226 95.3774 13.792 95.7834 8.25287L94.9134 8.3408L94.0144 8.45803C93.3184 8.54595 92.7386 8.57525 92.2456 8.60458C91.7526 8.63388 91.3756 8.48733 91.1145 8.16495C90.8536 7.87189 90.7377 7.49088 90.7377 7.05127C90.7377 6.61166 90.8536 6.25995 91.1145 5.93757C91.3756 5.55657 91.7526 5.38073 92.2456 5.35141C92.6805 5.32211 93.3184 5.26351 94.1594 5.17558L96.0734 5.02903L96.1604 3.79812C96.1893 3.3585 96.3633 2.97751 96.6244 2.68443C96.9143 2.36205 97.2913 2.2155 97.7553 2.2155C98.1903 2.2155 98.5672 2.36205 98.8862 2.68443C99.2053 3.00681 99.3793 3.38782 99.3503 3.79812L99.2922 4.38427L99.2342 4.99973L100.8 5.11696L102.337 5.26351C102.772 5.29281 103.12 5.46866 103.41 5.73242ZM97.9583 9.5131C97.9583 9.63035 97.9293 9.80618 97.9002 10.0407C97.9002 10.0993 97.9002 10.1872 97.8712 10.3044L97.8424 10.4803L97.8133 10.6854L97.7262 11.506C97.6972 11.9749 97.6393 12.649 97.5522 13.5283C97.5232 13.8506 97.5234 14.2609 97.4944 14.7006L97.4363 15.9022C97.3204 18.0417 97.2333 20.1811 97.2043 22.2913V22.3205C97.2043 22.4672 97.2913 22.555 97.4363 22.555C97.6103 22.555 97.6972 22.4672 97.6972 22.3205C97.6684 20.1811 97.6393 18.0709 97.6684 15.9315L97.6972 14.7006C97.6972 14.2023 97.6972 13.8213 97.7262 13.5576L97.8133 11.506L97.8424 11.0664C97.8424 10.8906 97.8424 10.7733 97.8712 10.6854C97.9002 10.3337 97.9293 10.1286 97.9293 10.0407C97.9583 9.80618 97.9583 9.63035 97.9583 9.5131Z" fill="#11224E"/>
<path d="M87.8084 18.833L87.7505 22.0568C87.7505 22.5843 87.5765 22.9945 87.1995 23.3169C86.8805 23.6101 86.4745 23.7566 86.0105 23.7566C85.5466 23.7566 85.1405 23.6101 84.8216 23.3169C84.4736 22.9945 84.2996 22.5843 84.2996 22.0568C84.2996 21.0895 84.2996 20.3569 84.3286 19.8879C83.1977 20.1518 81.8058 20.5913 80.1238 21.2069L80.2108 26.0132C80.2108 26.5407 80.0368 26.9511 79.6888 27.2735C79.3698 27.5665 78.9639 27.713 78.4998 27.713C78.0359 27.713 77.63 27.5665 77.3109 27.2735C76.934 26.9511 76.76 26.5407 76.76 26.0132L76.6729 22.4376C76.3249 22.4085 75.9769 22.2911 75.658 22.0274C75.368 21.7636 75.165 21.4706 75.0781 21.1189C74.817 20.1518 75.1941 19.419 76.2671 18.9501L76.6151 18.833C76.586 15.9607 76.4989 11.6818 76.383 5.96682C76.383 5.40998 76.557 4.99968 76.905 4.67729C77.224 4.38421 77.63 4.23767 78.0939 4.23767C78.5579 4.23767 78.9639 4.38421 79.2829 4.67729C79.6599 4.99968 79.8339 5.40998 79.8628 5.96682L79.9498 11.7404L80.0658 17.5433C81.6027 16.9865 83.0237 16.5762 84.3577 16.2538L84.5316 3.85668C84.5316 3.32914 84.7056 2.91883 85.0825 2.59645C85.4016 2.30337 85.8075 2.15682 86.2714 2.15682C86.7355 2.15682 87.1414 2.30337 87.4604 2.59645C87.8084 2.91883 87.9824 3.32914 87.9824 3.85668L87.9245 10.0406L87.8374 16.2245C88.0985 16.4297 88.2435 16.7227 88.3304 17.0451C88.5334 17.7779 88.3594 18.3639 87.8084 18.833ZM78.2679 5.38066H78.3548C78.4998 5.38066 78.5579 5.32206 78.5579 5.20483C78.5579 5.0876 78.4998 5.02898 78.3839 5.02898H78.2389L78.0649 5.0876C77.978 5.11691 77.9199 5.14621 77.8619 5.17551C77.7169 5.26344 77.5719 5.40998 77.427 5.61514C77.3109 5.82029 77.224 6.05475 77.1659 6.28921C77.1369 6.49436 77.108 6.64091 77.108 6.72882V9.04413C77.137 9.24929 77.137 9.60097 77.137 10.0406L77.224 12.0042L77.253 12.4731V12.9127C77.253 13.2937 77.253 13.5868 77.282 13.7627C77.3109 14.173 77.3109 14.554 77.3399 14.935V11.0371L77.3109 10.0406V9.04413L77.3399 8.5459V8.07697C77.3399 7.63736 77.3399 7.34428 77.3689 7.13913V6.96329C77.3689 6.87537 77.3689 6.78744 77.3979 6.75814C77.3979 6.67021 77.427 6.52366 77.456 6.37713C77.5139 6.17198 77.601 5.99613 77.7169 5.79097C77.804 5.67374 77.8909 5.58582 78.0359 5.49789L78.123 5.43929L78.1809 5.40999L78.2679 5.38066Z" fill="#11224E"/>
<path d="M72.5077 18.5691C72.3046 18.9501 71.9857 19.1553 71.6086 19.2432C68.5057 19.8587 65.6639 20.9432 63.112 22.5257L62.4162 22.9654L61.7492 23.4343L61.4591 23.6394L61.1402 23.8445L60.8502 24.1083L60.5022 24.372L60.1833 24.6652C59.7482 25.1048 59.1973 25.1928 58.5883 24.9876C57.9503 24.7531 57.6604 24.3135 57.6894 23.6394L57.8634 20.5915L58.0084 17.5434C57.7763 17.2503 57.6604 16.9279 57.6604 16.5762C57.6894 16.1952 57.8344 15.9022 58.0953 15.6677L58.1243 15.5212V15.3746L58.2112 13.5869L58.3273 11.7991C58.4143 10.3044 58.5013 9.10279 58.5304 8.25288C57.9503 7.87187 57.7473 7.31503 57.8923 6.64096C57.9794 6.23065 58.2693 5.87895 58.7623 5.58587C58.9363 5.49796 59.1393 5.38074 59.4002 5.29281L59.7193 5.20488L60.0383 5.08766C60.9371 4.70665 62.0101 4.29634 63.2281 3.91534C63.8951 3.68088 64.678 3.41712 65.577 3.09474L67.9258 2.30343C68.3608 2.15689 68.7378 2.2155 69.0858 2.42065C69.3757 2.62581 69.5787 2.91889 69.6947 3.29988C69.7818 3.68088 69.7527 4.03258 69.6078 4.38427C69.4628 4.76527 69.1729 5.02903 68.7378 5.17558L64.388 6.58234L61.4591 7.63741C61.4301 8.48733 61.4012 9.54242 61.3142 10.8026L61.1982 12.3853L61.1111 13.9679L63.141 12.8835C63.518 12.6783 63.9241 12.6197 64.3009 12.7662C64.6489 12.8835 64.91 13.118 65.1131 13.4696C65.3159 13.792 65.403 14.1437 65.3159 14.4954C65.229 14.8764 64.9969 15.1988 64.6201 15.4039C63.6051 15.9315 62.3872 16.6055 60.9083 17.4262L60.7343 20.5328C63.663 18.5691 67.0268 17.1917 70.8548 16.4004C71.8117 16.2246 72.4206 16.5762 72.6816 17.4555C72.7686 17.8365 72.7107 18.2174 72.5077 18.5691ZM71.8407 17.4555C71.6957 17.4555 71.6086 17.5141 71.6086 17.6313V17.7485C71.6086 17.8365 71.5796 17.9244 71.4927 18.0124C71.4056 18.1589 71.2316 18.2467 71.0288 18.3054C70.8836 18.3641 70.6227 18.4226 70.2747 18.5106L70.0717 18.5691L69.7237 18.6571H69.6658L69.3178 18.7743C69.2307 18.8036 69.0858 18.833 68.8537 18.9208L68.5928 18.9795L68.3319 19.0673C68.0998 19.1553 67.7228 19.2725 67.2299 19.4484L66.969 19.5364L66.6788 19.6535L66.1569 19.8294C65.9829 19.8881 65.8089 19.9759 65.606 20.0639L65.055 20.3276L64.533 20.5621L64.04 20.8258C63.8951 20.8845 63.7501 20.9723 63.5471 21.0604L63.315 21.2069L63.112 21.324C62.7352 21.5586 62.445 21.7344 62.3001 21.8516L62.097 21.9688L61.923 22.0861C61.7781 22.174 61.6912 22.2326 61.6331 22.2913L61.3432 22.4963L61.1111 22.7015L60.8212 22.936L61.1402 22.7015L61.3722 22.5257L61.6621 22.3205C61.7202 22.262 61.8071 22.2033 61.9521 22.1155L62.1261 22.0274L62.3291 21.9103C62.4741 21.7931 62.764 21.6172 63.141 21.3827C63.2571 21.324 63.4021 21.2655 63.6051 21.1775L64.0981 20.9138L65.1131 20.4741C65.258 20.4156 65.461 20.3276 65.6639 20.2398L66.2149 20.0052L66.5049 19.9174L66.7659 19.8001L67.0268 19.7416L67.317 19.6829L68.4188 19.3312L69.4047 19.0382L69.5497 19.0088H69.6658L69.7237 18.9795H69.7818C69.8108 18.9501 69.8687 18.9501 69.8977 18.9501L70.3328 18.8623C70.6808 18.8036 70.9707 18.7449 71.1737 18.6571C71.4346 18.5691 71.6086 18.4519 71.7536 18.3054C71.8407 18.2467 71.8986 18.1882 71.9566 18.1002L72.0437 17.8659V17.7779C72.0437 17.7485 72.0437 17.7192 72.0726 17.69C72.0726 17.5434 71.9857 17.4555 71.8407 17.4555Z" fill="#11224E"/>
<path d="M52.3798 28.2407C52.003 28.5338 51.5969 28.6805 51.104 28.6805C50.611 28.6805 50.1759 28.5338 49.857 28.2407C49.4801 27.9184 49.3061 27.4495 49.335 26.8926C49.509 22.8189 49.915 17.9537 50.5529 12.3267C48.9291 15.1403 47.7111 17.2504 46.8992 18.6279C46.4931 19.3605 45.8842 19.6535 45.1013 19.507C44.3183 19.3899 43.7963 18.9503 43.5354 18.1882L42.6944 15.5799L41.8244 12.9715L41.3895 17.4556L40.9254 21.9396C40.8964 22.4672 40.6935 22.9067 40.3746 23.2292C40.0554 23.6101 39.6205 23.786 39.0985 23.786C38.6056 23.786 38.1707 23.6101 37.7936 23.2292C37.3876 22.8482 37.2136 22.4378 37.2426 21.9396L38.1416 13.0594L39.0116 4.17918C39.0985 3.12411 39.6495 2.50865 40.6355 2.36212C41.6214 2.21557 42.2884 2.6552 42.6073 3.68097L44.2023 8.4288L45.7683 13.2059L51.8869 2.6552C52.3219 1.89319 53.0179 1.62942 54.0039 1.83458C55.0188 2.06904 55.4537 2.6552 55.3087 3.59304C54.0038 13.4111 53.2498 21.1777 53.0179 26.8926C52.9889 27.4495 52.7859 27.9184 52.3798 28.2407ZM52.3798 26.8048C52.4959 26.3944 52.5538 25.9549 52.5538 25.4565C52.5828 25.2808 52.5828 25.0169 52.5828 24.6946V23.9033L52.6119 23.0534V22.6137L52.6409 22.1741C52.6699 21.7931 52.7278 21.1777 52.7568 20.3569L52.8439 19.3899L52.9018 18.4521L53.0468 16.547L53.1339 15.6385L53.1919 14.7299C53.3079 13.5576 53.3948 12.4733 53.4528 11.4475L53.7428 8.28226C53.6559 9.13218 53.5399 10.1873 53.3948 11.4475L53.0179 14.7006L52.9308 15.6092L52.8439 16.547L52.6409 18.4228C52.5828 18.8916 52.525 19.5364 52.4379 20.3278L52.2639 22.1741C52.2349 22.9654 52.2058 23.5223 52.177 23.874V24.0792L52.1479 24.2842V24.6946L52.1189 25.0756L52.0899 25.4273C52.0609 25.9255 51.9739 26.3357 51.8869 26.6289C51.7709 26.9513 51.6259 27.1856 51.4229 27.2737C51.336 27.303 51.278 27.303 51.1909 27.3322C51.104 27.3322 51.0169 27.3322 50.988 27.303L50.9009 27.2737H50.8429L50.785 27.2443H50.756C50.582 27.215 50.466 27.2737 50.437 27.4495C50.408 27.6254 50.466 27.7425 50.64 27.8012H50.756C50.785 27.8305 50.8431 27.8305 50.8719 27.8305C50.93 27.8597 51.0459 27.8597 51.2199 27.8597C51.278 27.8597 51.336 27.8597 51.4229 27.8305C51.51 27.8012 51.5969 27.7719 51.655 27.7425C51.858 27.6547 52.003 27.508 52.0899 27.3615C52.177 27.215 52.2929 27.0098 52.3798 26.8048Z" fill="#11224E"/>
<path d="M33.7026 6.8168C34.5145 8.63388 34.9205 10.744 34.9205 13.1473C34.8915 15.785 34.3695 18.0417 33.3836 19.8881C32.3106 21.9103 30.9186 23.1412 29.1498 23.5808C27.2358 24.1083 25.467 23.6979 23.872 22.3205C22.2191 20.9723 21.1751 18.9795 20.6822 16.3125C20.2761 14.0265 20.3342 11.7112 20.8852 9.36657C21.3782 7.22711 22.3351 5.49796 23.727 4.12051C25.3509 2.53788 27.1489 2.01035 29.1498 2.5672C31.1507 3.12404 32.6876 4.56012 33.7026 6.8168ZM27.5258 20.1224H27.6419C28.5988 20.0933 29.3817 19.507 30.0198 18.4226C30.8027 17.0159 31.2376 15.2574 31.2666 13.1473C31.2666 10.9199 30.8896 9.16142 30.1067 7.87189C29.9037 7.52018 29.7006 7.25643 29.5266 7.05127L29.3238 6.84612C29.2367 6.75819 29.1788 6.67027 29.0917 6.64096L29.0048 6.55304L28.7728 6.40649L28.5697 6.28926C28.5407 6.25996 28.5117 6.23066 28.4828 6.23066L28.4248 6.20135H28.3667C28.3379 6.20135 28.2508 6.17203 28.1348 6.14273C28.0768 6.14273 28.0477 6.14273 28.0187 6.11343H27.7868C26.8298 6.11343 26.0469 6.67027 25.3799 7.81326C24.539 9.24934 24.1329 11.0078 24.1329 13.0593C24.1329 15.2867 24.5099 17.0452 25.293 18.3347C25.5539 18.7449 25.7279 19.0381 25.8729 19.1847L26.0759 19.419C26.1628 19.507 26.2209 19.5657 26.308 19.5949L26.3658 19.6535L26.8298 19.9466L26.9169 20.0052C26.9459 20.0052 27.0038 20.0052 27.0328 20.0346H27.1199L27.2939 20.0639C27.4098 20.0933 27.4388 20.0933 27.3808 20.0933L27.5258 20.1224ZM34.1665 14.8764V14.6126L34.1955 14.2023V13.2352C34.1665 13.03 34.1665 12.8542 34.1665 12.7076V13.5283L34.1375 13.8213C34.1375 13.9679 34.1084 14.2316 34.0796 14.6126C34.0796 14.7299 34.0506 14.8764 34.0215 15.0816L33.9925 15.316L33.9344 15.5798L33.8475 16.0487L33.7895 16.2832L33.7026 16.5469C33.6735 16.6642 33.6445 16.84 33.5576 17.0745L33.3836 17.602L33.2675 17.8365L32.9195 18.6278L32.7745 18.8623L32.6295 19.126C32.5426 19.3312 32.4265 19.4777 32.3396 19.5949C32.1076 19.9174 31.8757 20.2104 31.6436 20.4448C31.1797 20.9432 30.6867 21.324 30.1938 21.6464C29.9907 21.7931 29.7877 21.9103 29.5266 22.0274L29.2367 22.174L29.0048 22.262C28.9468 22.2913 28.8887 22.2913 28.8308 22.3205C28.7728 22.3498 28.7437 22.3498 28.7147 22.3498C28.6857 22.3791 28.6568 22.3791 28.5988 22.3791C28.4248 22.3791 28.3379 22.4672 28.3379 22.6722C28.3667 22.848 28.4828 22.936 28.6568 22.936L28.7728 22.9067L28.9758 22.848L29.2077 22.7602C29.5847 22.6137 29.9907 22.3791 30.4547 22.0568C31.0347 21.6172 31.5277 21.1775 31.9336 20.7086C32.1076 20.5035 32.3396 20.2104 32.6005 19.7707C32.6876 19.6535 32.7745 19.4777 32.8906 19.2725L33.1515 18.7449L33.3836 18.2176L33.4995 17.9244L33.5864 17.6607C33.6445 17.5141 33.7026 17.3383 33.7604 17.1331L33.8766 16.6056C33.9056 16.4883 33.9635 16.3125 33.9925 16.078L34.0796 15.5798L34.1665 14.8764Z" fill="#11224E"/>
<path d="M15.1403 28.2407C14.7634 28.5338 14.3574 28.6805 13.8644 28.6805C13.3714 28.6805 12.9365 28.5338 12.6175 28.2407C12.2405 27.9184 12.0665 27.4495 12.0955 26.8926C12.2695 22.8189 12.6755 17.9537 13.3134 12.3267C11.6895 15.1403 10.4716 17.2504 9.65962 18.6279C9.25364 19.3605 8.64467 19.6535 7.8617 19.507C7.07875 19.3899 6.55678 18.9503 6.29578 18.1882L5.45483 15.5799L4.58488 12.9715L4.14988 17.4556L3.68592 21.9396C3.65692 22.4672 3.45393 22.9067 3.13495 23.2292C2.81595 23.6101 2.38098 23.786 1.859 23.786C1.36603 23.786 0.931051 23.6101 0.554069 23.2292C0.148089 22.8482 -0.0259021 22.4378 0.0030965 21.9396L0.902053 13.0594L1.772 4.17918C1.859 3.12411 2.40999 2.50865 3.39593 2.36212C4.38189 2.21557 5.04884 2.6552 5.36783 3.68097L6.96276 8.4288L8.52868 13.2059L14.6474 2.6552C15.0824 1.89319 15.7783 1.62942 16.7643 1.83458C17.7791 2.06904 18.2142 2.6552 18.0692 3.59304C16.7643 13.4111 16.0103 21.1777 15.7783 26.8926C15.7493 27.4495 15.5463 27.9184 15.1403 28.2407ZM15.1403 26.8048C15.2563 26.3944 15.3143 25.9549 15.3143 25.4565C15.3433 25.2808 15.3433 25.0169 15.3433 24.6946V23.9033L15.3723 23.0534V22.6137L15.4013 22.1741C15.4303 21.7931 15.4883 21.1777 15.5173 20.3569L15.6043 19.3899L15.6623 18.4521L15.8073 16.547L15.8943 15.6385L15.9523 14.7299C16.0683 13.5576 16.1553 12.4733 16.2133 11.4475L16.5033 8.28226C16.4163 9.13218 16.3003 10.1873 16.1553 11.4475L15.7783 14.7006L15.6913 15.6092L15.6043 16.547L15.4013 18.4228C15.3433 18.8916 15.2853 19.5364 15.1983 20.3278L15.0244 22.1741C14.9954 22.9654 14.9664 23.5223 14.9374 23.874V24.0792L14.9084 24.2842V24.6946L14.8794 25.0756L14.8504 25.4273C14.8214 25.9255 14.7344 26.3357 14.6474 26.6289C14.5314 26.9513 14.3864 27.1856 14.1834 27.2737C14.0964 27.303 14.0384 27.303 13.9514 27.3322C13.8644 27.3322 13.7774 27.3322 13.7484 27.303L13.6614 27.2737H13.6034L13.5454 27.2443H13.5164C13.3424 27.215 13.2264 27.2737 13.1974 27.4495C13.1684 27.6254 13.2264 27.7425 13.4004 27.8012H13.5164C13.5454 27.8305 13.6034 27.8305 13.6324 27.8305C13.6904 27.8597 13.8064 27.8597 13.9804 27.8597C14.0384 27.8597 14.0964 27.8597 14.1834 27.8305C14.2704 27.8012 14.3574 27.7719 14.4154 27.7425C14.6184 27.6547 14.7634 27.508 14.8504 27.3615C14.9374 27.215 15.0533 27.0098 15.1403 26.8048Z" fill="#11224E"/>
</svg>
