<svg width="189" height="65" viewBox="0 0 189 65" fill="none" xmlns="http://www.w3.org/2000/svg">
<g clip-path="url(#clip0_699_3951)">
<path d="M32 44.7L32.6 43.7C32.7 43.6 35.6 47.8 35.6 47.7L32 44.7ZM10.1 34.7C10.1 34.7 11.5 35.7 11.6 35.8C11.7 35.8 15.2 35.3 17.3 35.2L11.7 39.8L10.1 34.7ZM7.2 32.7C7.2 32.7 8.9 33.7 9.3 34C9.4 34 11 40.4 11.1 40.4C11.1 40.5 10.2 47.1 10.2 46.9L7.2 32.7ZM6.9 30.8L8.2 30.2L9.1 33.3C9.1 33.3 7.1 31.9 7.1 32C7.2 31.9 6.9 30.8 6.9 30.8ZM9.5 29.4L11.2 34.6C10.6 34.2 9.8 33.6 9.8 33.6C9.7 33.6 8.7 29.7 8.7 29.7L9.5 29.4ZM10 29.2C10 29.2 14.1 27.2 13.9 27.2L17.8 34.7L12 35.2L10 29.2ZM10.2 21.4L12.3 25.4C12.4 25.4 8.7 22 8.7 21.9L10.2 21.4ZM7.4 21.3C7.3 21.4 12 26.3 12.9 26.9L9.8 28.5L7.4 21.3ZM11.4 20.9L11.9 20.7C11.9 20.7 12.1 21.2 13.1 22.8L28.4 48.8C29.3 50.3 33.6 57.2 33.8 58.2C31.3 56.8 12.7 49.8 10.8 48.6L11.6 41.6C11.8 40.1 11.9 40.5 14 38.7C14.8 38 18.5 35.1 18.6 34.7L11.4 20.9ZM38.3 21C38.4 21 42.4 21.9 43.4 22.2C43.4 22.1 47.1 24.4 49.9 26.5C51.1 27.4 53.4 29.3 53.4 29.3C53.4 29.3 39 21 38.3 21ZM12.5 20.5L13.9 20.2C14.8 21.3 15.7 22.8 16.6 24L30.4 43.5C31.5 45.1 32.1 45.6 33.6 46.8C34.8 47.8 37.3 49.7 37.4 49.8C37.4 49.8 35.1 57.3 34.5 58L15.3 25.5C14.3 23.9 13.5 22.1 12.5 20.5ZM14.5 19.9L30.6 41C31 41.6 31.2 41.8 31.7 42.5C32 42.9 32.3 43.3 32.3 43.3C32.3 43.3 31.7 44.2 31.6 44.2L18.8 26.2C18.1 25.2 17.4 24.1 16.7 23.2L14.5 19.9ZM15.4 19.7L17 19.2C17.7 20 18.5 20.7 19.2 21.5L28.2 31.3C29 32.2 29.6 33.1 30.5 33.9L35 38.8C35 38.9 33.2 41.6 32.6 42.7L15.4 19.7ZM17.7 18.9C20.8 17.8 22.9 17.1 22.9 17.2C22.9 17.2 26.7 20 32 23.8L45.4 33.5L35.5 38.3C35.5 38.3 35.4 38.2 34.9 37.7L17.7 18.9ZM25.1 17.5C25 17.5 34.2 19.9 34.1 19.8C37 20.6 39.5 22.3 41.9 23.6L56.7 32L50.2 35L43.8 30.7C41.8 29.3 39.8 27.8 37.6 26.4C35.5 25 33.5 23.5 31.4 22L25.1 17.5ZM4.8 15.8L9.3 28.8L8.7 29.1L4.8 15.8ZM2.4 9.3L8 29.5L6.7 30C6.7 30 2.4 10.9 2.4 9.3ZM14.7 7.7C16.3 8.5 42 21.1 42.2 21.1C42.2 21.1 36.3 19.5 36.2 19.5C36.1 19.5 14.7 7.8 14.7 7.7ZM4.9 7.6L11.2 16.5C12 17.7 12.8 18.5 13.4 19.8L12.1 20.1C10.9 18.1 9.8 16.1 8.5 14C7.3 11.8 6.1 9.9 4.9 7.6ZM5.7 6.8C6.5 7.2 10.4 11.8 11.2 12.8C11.6 13.3 12.2 13.7 12.6 14.2L16.6 18.7L14.8 19.3L5.7 6.8ZM2.8 6.7L10 20.8L8.3 21.3L2.8 6.7ZM5.9 3.8C9.3 5.2 33.3 18.9 33.5 18.9C33.4 19 23.7 16.3 23.6 16.2C23.6 16.2 22.3 15.4 21.7 15C21.5 14.8 21.3 14.7 21.1 14.5L5.9 3.8ZM2.9 2.6L12.6 9.6C14.3 10.8 15.8 12 17.5 13.2L22.3 16.6C22.3 16.6 18.5 17.9 17.3 18.3C15.7 16.9 15.1 15.9 13.8 14.5L4.7 4.7C3.8 3.7 3.6 3.8 2.9 2.6ZM35 59.3C35.4 56.3 38.2 49.8 38 49.8C37.9 49.6 33.6 44.5 33 43.1C33.1 43 35.2 39.5 35.6 39.1C35.7 39 45.9 34.2 46 34.2C46 34.3 49 36.3 49 36.4C48.9 36.6 57.9 32.2 57.9 32.2C57.9 32.1 49.8 25.9 48.3 24.8C45.8 22.9 44.7 22 43.2 21.2C37.2 17.7 1.4 0.1 0 0C0 0 5.3 30.9 5.2 31C5.2 31 6.5 32.4 6.6 32.4C6.7 32.6 6.7 32.8 6.8 33.7L9.8 48.3C10.1 49.5 10.1 49.3 11.3 49.7L17.7 52.4C20.5 53.6 23.3 54.6 26 55.8C27.7 56.4 33.4 59.1 35 59.3Z" fill="#232325"/>
<path d="M69.7 15.8994H66.1C65.8 15.8994 65.7 15.7994 65.7 15.3994V14.2994C65.7 13.9994 65.8 13.8994 66.1 13.8994H75.7C76.2 13.8994 76.3 13.9994 76.3 14.3994L76.2 15.4994C76.2 15.7994 76 15.8994 75.6 15.8994H72.2V26.5994C72.2 26.8994 72.1 27.0994 71.7 27.0994H70.2C69.9 27.0994 69.7 26.9994 69.7 26.5994V15.8994Z" fill="#232325"/>
<path d="M85.9 15.6V14.5C85.9 14.1 86 14 86.4 14H87.9C88.2 14 88.4 14.1 88.4 14.5V26.7C88.4 27 88.3 27.2 87.9 27.2H86.4C86 27.2 85.9 27.1 85.9 26.7V18.8L80.2 25.4V26.7C80.2 27 80.1 27.2 79.7 27.2H78.2C77.8 27.2 77.7 27.1 77.7 26.7V14.5C77.7 14.1 77.8 14 78.2 14H79.7C80 14 80.2 14.1 80.2 14.5V22.4L85.9 15.6Z" fill="#232325"/>
<path d="M93.9998 15.8994H90.3998C90.0998 15.8994 89.9998 15.7994 89.9998 15.3994V14.2994C89.9998 13.9994 90.0998 13.8994 90.3998 13.8994H99.9998C100.5 13.8994 100.6 13.9994 100.6 14.3994L100.5 15.4994C100.5 15.7994 100.3 15.8994 99.8998 15.8994H96.4998V26.5994C96.4998 26.8994 96.3998 27.0994 95.9998 27.0994H94.4998C94.1998 27.0994 93.9998 26.9994 93.9998 26.5994V15.8994Z" fill="#232325"/>
<path d="M105.5 14.2994C105.6 14.0994 105.7 13.8994 106 13.8994H107.5C107.8 13.8994 108 13.9994 108 14.1994L112.7 26.4994C112.8 26.7994 112.7 26.9994 112.4 26.9994H110.7C110.3 26.9994 110.2 26.7994 110.1 26.4994L109.1 23.6994H104.3L103.3 26.4994C103.2 26.6994 103.1 26.8994 102.8 26.8994H101.2C100.9 26.8994 100.8 26.6994 100.9 26.3994L105.5 14.2994ZM108.4 21.9994L107.1 17.9994C106.9 17.4994 106.8 17.0994 106.7 16.7994C106.6 17.0994 106.5 17.4994 106.3 18.0994L105 22.0994H108.4V21.9994Z" fill="#232325"/>
<path d="M124.6 26.5994C124.6 26.8994 124.5 27.0994 124.1 27.0994H122.6C122.3 27.0994 122.1 26.9994 122.1 26.5994V21.2994H116.7V26.5994C116.7 26.8994 116.5 27.0994 116.2 27.0994H114.7C114.4 27.0994 114.2 26.9994 114.2 26.5994V14.3994C114.2 14.0994 114.4 13.8994 114.7 13.8994H116.2C116.5 13.8994 116.7 13.9994 116.7 14.3994V19.3994H122.1V14.3994C122.1 14.0994 122.3 13.8994 122.6 13.8994H124.1C124.4 13.8994 124.6 13.9994 124.6 14.3994V26.5994Z" fill="#232325"/>
<path d="M132.5 27.2996C128.9 27.2996 126.8 24.6996 126.8 20.4996C126.8 16.3996 129.1 13.5996 132.7 13.5996C136.5 13.5996 138.4 16.3996 138.4 20.2996C138.4 24.6996 135.9 27.2996 132.5 27.2996ZM132.6 15.7996C130.7 15.7996 129.4 17.5996 129.4 20.4996C129.4 23.6996 130.6 25.1996 132.6 25.1996C134.5 25.1996 135.8 23.4996 135.8 20.4996C135.7 17.2996 134.6 15.7996 132.6 15.7996Z" fill="#232325"/>
<path d="M144.6 27.0994H141C140.6 27.0994 140.5 26.8994 140.5 26.4994V14.3994C140.5 13.9994 140.7 13.8994 141.1 13.8994H143.9C147 13.8994 148.7 14.7994 148.7 17.0994C148.7 18.3994 147.9 19.5994 146.6 19.8994C148.4 19.9994 149.8 21.2994 149.8 23.1994C149.8 26.2994 147.3 27.0994 144.6 27.0994ZM144 15.7994H143V19.2994H144C145.4 19.2994 146.4 18.8994 146.4 17.3994C146.3 16.1994 145.4 15.7994 144 15.7994ZM146.3 21.3994C145.7 21.0994 145.1 21.0994 144.3 21.0994C144.2 21.0994 143.2 21.0994 143 21.0994V25.1994H144.4C145.1 25.1994 145.7 25.0994 146.2 24.9994C146.9 24.6994 147.3 24.0994 147.3 23.1994C147.3 22.2994 146.9 21.6994 146.3 21.3994Z" fill="#232325"/>
<path d="M155.4 14.2994C155.5 14.0994 155.6 13.8994 155.9 13.8994H157.4C157.7 13.8994 157.9 13.9994 157.9 14.1994L162.6 26.4994C162.7 26.7994 162.6 26.9994 162.3 26.9994H160.6C160.2 26.9994 160.1 26.7994 160 26.4994L159 23.6994H154.2L153.2 26.4994C153.1 26.6994 153 26.8994 152.7 26.8994H151C150.7 26.8994 150.6 26.6994 150.7 26.3994L155.4 14.2994ZM158.3 21.9994L157 17.9994C156.8 17.4994 156.7 17.0994 156.6 16.7994C156.5 17.0994 156.4 17.4994 156.2 18.0994L154.9 22.0994H158.3V21.9994Z" fill="#232325"/>
<path d="M169.7 22.0994C168.4 22.0994 168 22.4994 167.4 23.7994L166.1 26.5994C166 26.7994 165.8 27.0994 165.3 27.0994H163.7C163.3 27.0994 163.2 26.7994 163.4 26.4994L165.1 23.0994C165.5 22.3994 165.8 21.8994 166.4 21.5994C165.2 21.2994 164.1 20.0994 164.1 18.0994C164.1 15.0994 166.3 13.8994 169.1 13.8994H172.5C172.8 13.8994 173 13.9994 173 14.3994V26.4994C173 26.7994 172.9 26.9994 172.5 26.9994H171C170.6 26.9994 170.5 26.8994 170.5 26.4994V21.9994H169.7V22.0994ZM170.6 15.7994H169C167.5 15.7994 166.5 16.3994 166.5 17.8994C166.5 19.4994 167.3 20.1994 168.9 20.1994H170.6V15.7994Z" fill="#232325"/>
<path d="M77.2999 44.1C77.5999 44.1 77.7999 44.2 77.7999 44.6V49.3C77.7999 49.6 77.6999 49.8 77.2999 49.8H75.9999C75.5999 49.8 75.4999 49.7 75.4999 49.3V46.1H67.6999V49.3C67.6999 49.6 67.5999 49.8 67.1999 49.8H65.8999C65.4999 49.8 65.3999 49.7 65.3999 49.3V44.6C65.3999 44.2 65.5999 44.1 65.8999 44.1H66.1999C67.9999 41.6 68.6999 38.6 68.6999 35.9V33.5C68.6999 33.1 68.8999 33 69.1999 33H75.9999C76.2999 33 76.4999 33.1 76.4999 33.5V44.1H77.2999ZM71.2999 35.7C71.2999 38.5 70.6999 41.5 68.9999 44.1H73.9999V34.9H71.1999V35.7H71.2999Z" fill="#232325"/>
<path d="M85.0997 46.2996C81.4997 46.2996 79.3997 43.6996 79.3997 39.4996C79.3997 35.3996 81.6997 32.5996 85.2997 32.5996C89.0997 32.5996 90.9997 35.3996 90.9997 39.2996C90.8997 43.6996 88.4997 46.2996 85.0997 46.2996ZM85.0997 34.7996C83.1997 34.7996 81.8997 36.5996 81.8997 39.4996C81.8997 42.6996 83.0997 44.2996 85.0997 44.2996C86.9997 44.2996 88.2997 42.5996 88.2997 39.4996C88.2997 36.2996 87.1997 34.7996 85.0997 34.7996Z" fill="#232325"/>
<path d="M97.0999 35.7C97.0999 41.3 96.3999 45.4 92.6999 46.2C92.3999 46.3 92.1999 46.2 92.0999 45.9L91.8 44.7C91.7 44.4 91.7999 44.2 92.0999 44.1C94.4999 43.4 94.6999 39.7 94.6999 36V33.5C94.6999 33.1 94.8999 33 95.1999 33H102.4C102.7 33 102.9 33.1 102.9 33.5V45.6C102.9 45.9 102.8 46.1 102.4 46.1H100.9C100.5 46.1 100.4 46 100.4 45.6V34.9H96.9999V35.7H97.0999Z" fill="#232325"/>
<path d="M113.9 34.6V33.5C113.9 33.1 114 33 114.4 33H115.9C116.2 33 116.4 33.1 116.4 33.5V45.7C116.4 46 116.3 46.2 115.9 46.2H114.4C114 46.2 113.9 46.1 113.9 45.7V37.8L108.2 44.4V45.7C108.2 46 108.1 46.2 107.7 46.2H106.2C105.8 46.2 105.7 46.1 105.7 45.7V33.5C105.7 33.1 105.8 33 106.2 33H107.7C108 33 108.2 33.1 108.2 33.5V41.4L113.9 34.6Z" fill="#232325"/>
<path d="M129.5 45.5994C129.5 45.8994 129.4 46.0994 129 46.0994H127.5C127.2 46.0994 127 45.9994 127 45.5994V40.2994H121.6V45.5994C121.6 45.8994 121.4 46.0994 121.1 46.0994H119.6C119.3 46.0994 119.1 45.9994 119.1 45.5994V33.3994C119.1 33.0994 119.3 32.8994 119.6 32.8994H121.1C121.4 32.8994 121.6 32.9994 121.6 33.3994V38.3994H127V33.3994C127 33.0994 127.2 32.8994 127.5 32.8994H129C129.3 32.8994 129.5 32.9994 129.5 33.3994V45.5994Z" fill="#232325"/>
<path d="M135.6 33.2994C135.7 33.0994 135.8 32.8994 136.1 32.8994H137.6C137.9 32.8994 138.1 32.9994 138.1 33.1994L142.8 45.4994C142.9 45.7994 142.8 45.9994 142.5 45.9994H140.8C140.4 45.9994 140.3 45.7994 140.2 45.4994L139.2 42.6994H134.4L133.4 45.4994C133.3 45.6994 133.2 45.8994 132.9 45.8994H131.3C131 45.8994 130.9 45.6994 131 45.3994L135.6 33.2994ZM138.6 40.9994L137.3 36.9994C137.1 36.4994 137 36.0994 136.9 35.7994C136.8 36.0994 136.7 36.4994 136.5 37.0994L135.2 41.0994H138.6V40.9994Z" fill="#232325"/>
<path d="M67.3 62.1C65.5 62.1 64.5 60.8 64.5 58.6C64.5 56.4 65.7 55 67.4 55C69.2 55 70.2 56.4 70.2 58.5C70.2 60.8 69 62.1 67.3 62.1ZM67.4 55.8C66.3 55.8 65.5 56.9 65.5 58.6C65.5 60.3 66.2 61.4 67.4 61.4C68.5 61.4 69.3 60.3 69.3 58.6C69.3 56.8 68.6 55.8 67.4 55.8Z" fill="#232325"/>
<path d="M74.8 57.9002C74.8 58.0002 74.7 58.0002 74.6 58.0002C74.3 57.9002 74 57.8002 73.6 57.8002C72.7 57.8002 72.1 58.5002 72.1 59.6002C72.1 60.6002 72.5 61.5002 73.6 61.5002C74 61.5002 74.3 61.4002 74.7 61.3002C74.8 61.3002 74.9 61.3002 74.9 61.4002L75 61.7002C75 61.8002 75 61.9002 74.9 61.9002C74.5 62.1002 74 62.2002 73.6 62.2002C72 62.2002 71.3 61.2002 71.3 59.7002C71.3 58.2002 72.2 57.2002 73.7 57.2002C74.2 57.2002 74.6 57.3002 75 57.5002C75.1 57.5002 75.1 57.6002 75.1 57.7002L74.8 57.9002Z" fill="#232325"/>
<path d="M77.7999 62.0996C76.2999 62.0996 75.5999 60.9996 75.5999 59.5996C75.5999 58.1996 76.3999 57.0996 77.8999 57.0996C79.3999 57.0996 80.0999 58.1996 80.0999 59.5996C80.0999 60.9996 79.2999 62.0996 77.7999 62.0996ZM77.7999 57.6996C76.6999 57.6996 76.3999 58.5996 76.3999 59.4996C76.3999 60.3996 76.6999 61.3996 77.7999 61.3996C78.7999 61.3996 79.1999 60.4996 79.1999 59.5996C79.1999 58.6996 78.8999 57.6996 77.7999 57.6996Z" fill="#232325"/>
<path d="M83.5999 57.2998C84.6999 57.2998 85.4999 58.0998 85.4999 59.5998C85.4999 61.0998 84.6999 62.0998 83.2999 62.0998C81.3999 62.0998 81.0999 60.3998 81.0999 58.8998C81.0999 57.5998 81.1999 56.5998 81.7999 55.8998C82.1999 55.3998 82.8999 55.0998 83.9999 54.8998L84.9999 54.7998C85.0999 54.7998 85.0999 54.7998 85.0999 54.8998V55.3998C85.0999 55.4998 85.0999 55.4998 84.9999 55.4998L84.0999 55.5998C83.1999 55.6998 82.5999 55.9998 82.2999 56.3998C82.0999 56.6998 81.9999 57.1998 81.9999 57.7998C82.2999 57.5998 82.8999 57.2998 83.5999 57.2998ZM81.8999 58.7998C81.8999 60.5998 82.2999 61.3998 83.1999 61.3998C84.0999 61.3998 84.4999 60.4998 84.4999 59.5998C84.4999 58.8998 84.1999 57.8998 83.1999 57.8998C82.5999 57.8998 82.0999 58.1998 81.7999 58.5998V58.7998H81.8999Z" fill="#232325"/>
<path d="M89.7 61.2996C89.5 61.6996 88.8 62.0996 88.2 62.0996C86.8 62.0996 86.2 60.8996 86.2 59.6996C86.2 57.9996 87.2 57.0996 88.3 57.0996C88.8 57.0996 89.3 57.2996 89.6 57.6996V57.3996C89.6 57.2996 89.7 57.1996 89.8 57.1996H90.2C90.3 57.1996 90.4 57.2996 90.4 57.3996V60.8996C90.4 61.2996 90.4 61.3996 90.6 61.3996C90.7 61.3996 90.8 61.3996 90.8 61.4996V61.7996C90.8 61.8996 90.7 61.9996 90.6 61.9996H90.2C90 61.9996 89.8 61.6996 89.7 61.2996ZM89.7 58.4996C89.5 57.9996 89 57.7996 88.5 57.7996C87.7 57.7996 87.2 58.4996 87.2 59.6996C87.2 60.7996 87.7 61.4996 88.4 61.4996C89 61.4996 89.5 60.9996 89.7 60.4996V58.4996Z" fill="#232325"/>
<path d="M94.0998 60.0002C93.5998 60.0002 93.3998 60.2002 93.0998 60.7002L92.4998 61.9002C92.4998 62.0002 92.3998 62.0002 92.2998 62.0002H91.6998C91.5998 62.0002 91.4998 61.9002 91.5998 61.8002L92.3998 60.4002C92.4998 60.2002 92.6998 59.9002 92.8998 59.8002C92.2998 59.7002 91.8998 59.3002 91.8998 58.6002C91.8998 58.1002 92.0998 57.7002 92.3998 57.5002C92.6998 57.2002 93.2998 57.2002 93.9998 57.2002H95.3998C95.4998 57.2002 95.5998 57.2002 95.5998 57.4002V61.8002C95.5998 62.0002 95.4998 62.0002 95.3998 62.0002H94.9998C94.8998 62.0002 94.7998 62.0002 94.7998 61.8002V60.0002H94.0998ZM94.7998 57.8002H93.9998C93.2998 57.8002 92.8998 58.0002 92.8998 58.6002C92.8998 59.2002 93.3998 59.4002 93.9998 59.4002H94.7998V57.8002Z" fill="#232325"/>
<path d="M99.7001 59.8C99.6001 59.8 99.6001 59.8 99.6001 59.7V59.3C99.6001 59.2 99.6001 59.2 99.7001 59.2H102C101.9 58.4 101.4 57.8 100.4 57.8C100 57.8 99.6001 57.9 99.3001 58C99.2001 58 99.1001 58 99.1001 57.9L99.0001 57.4C99.0001 57.3 99.0001 57.3 99.1001 57.2C99.5001 57.1 99.9001 57 100.4 57C102 57 102.9 58 102.9 59.5C102.9 61 102 62.1 100.3 62.1C99.8001 62.1 99.4001 62 99.0001 61.9C98.9001 61.9 98.9001 61.8 98.9001 61.7L99.0001 61.3C99.0001 61.2 99.1001 61.2 99.2001 61.2C99.4001 61.3 99.9001 61.4 100.3 61.4C101.4 61.4 102 60.9 102 59.8H99.7001Z" fill="#232325"/>
<path d="M105.3 59.2996C106 59.2996 106.3 59.0996 106.4 58.5996L106.6 58.0996C106.8 57.5996 106.9 57.1996 107.7 57.1996H107.8C107.9 57.1996 107.9 57.1996 107.9 57.2996V57.6996C107.9 57.7996 107.9 57.7996 107.8 57.7996H107.7C107.4 57.7996 107.3 57.9996 107.2 58.2996L107 58.7996C106.9 59.1996 106.6 59.4996 106.3 59.5996C106.6 59.6996 106.8 59.8996 107 60.1996L107.9 61.6996C108 61.7996 107.9 61.8996 107.8 61.8996H107.3C107.2 61.8996 107.1 61.7996 107 61.6996L106.2 60.3996C105.9 59.8996 105.7 59.7996 105.1 59.7996H104.7V61.6996C104.7 61.8996 104.6 61.8996 104.5 61.8996H104.1C104 61.8996 103.9 61.8996 103.9 61.6996V57.2996C103.9 57.1996 104 57.0996 104.1 57.0996H104.5C104.6 57.0996 104.7 57.0996 104.7 57.2996V59.1996H105.3V59.2996Z" fill="#232325"/>
<path d="M110.9 62.0996C109.4 62.0996 108.7 60.9996 108.7 59.5996C108.7 58.1996 109.5 57.0996 111 57.0996C112.5 57.0996 113.2 58.1996 113.2 59.5996C113.2 60.9996 112.4 62.0996 110.9 62.0996ZM111 57.6996C109.9 57.6996 109.6 58.5996 109.6 59.4996C109.6 60.3996 109.9 61.3996 111 61.3996C112 61.3996 112.4 60.4996 112.4 59.5996C112.4 58.6996 112 57.6996 111 57.6996Z" fill="#232325"/>
<path d="M117.5 57.4002C117.5 57.3002 117.6 57.2002 117.7 57.2002H118.2C118.3 57.2002 118.4 57.2002 118.4 57.4002V61.8002C118.4 62.0002 118.3 62.0002 118.2 62.0002H117.7C117.6 62.0002 117.5 62.0002 117.5 61.8002V59.8002H115.2V61.8002C115.2 62.0002 115.1 62.0002 115 62.0002H114.6C114.5 62.0002 114.4 62.0002 114.4 61.8002V57.4002C114.4 57.3002 114.5 57.2002 114.6 57.2002H115C115.1 57.2002 115.2 57.2002 115.2 57.4002V59.2002H117.5V57.4002Z" fill="#232325"/>
<path d="M121.6 62.0996C120.1 62.0996 119.4 60.9996 119.4 59.5996C119.4 58.1996 120.2 57.0996 121.7 57.0996C123.2 57.0996 123.9 58.1996 123.9 59.5996C124 60.9996 123.1 62.0996 121.6 62.0996ZM121.7 57.6996C120.6 57.6996 120.3 58.5996 120.3 59.4996C120.3 60.3996 120.6 61.3996 121.7 61.3996C122.7 61.3996 123.1 60.4996 123.1 59.5996C123.1 58.6996 122.7 57.6996 121.7 57.6996Z" fill="#232325"/>
<path d="M127.6 61.0996L129 57.2996C129 57.1996 129.1 57.0996 129.2 57.0996H129.8C129.9 57.0996 130 57.0996 130 57.2996L130.2 61.6996C130.2 61.7996 130.1 61.8996 130 61.8996H129.6C129.5 61.8996 129.4 61.8996 129.4 61.6996L129.3 58.0996L128 61.6996C128 61.7996 127.9 61.8996 127.8 61.8996H127.3C127.2 61.8996 127.1 61.8996 127.1 61.6996L125.8 58.0996L125.7 61.6996C125.7 61.7996 125.6 61.8996 125.5 61.8996H125.1C125 61.8996 124.9 61.8996 124.9 61.6996L125.1 57.2996C125.1 57.1996 125.2 57.0996 125.3 57.0996H126C126.1 57.0996 126.2 57.0996 126.2 57.2996L127.6 61.0996Z" fill="#232325"/>
<path d="M134.7 57.8002V57.4002C134.7 57.3002 134.8 57.2002 134.9 57.2002H135.3C135.4 57.2002 135.5 57.2002 135.5 57.4002V61.8002C135.5 62.0002 135.4 62.0002 135.3 62.0002H134.9C134.8 62.0002 134.7 62.0002 134.7 61.8002V58.8002L132.4 61.3002V61.8002C132.4 62.0002 132.3 62.0002 132.2 62.0002H131.8C131.7 62.0002 131.6 62.0002 131.6 61.8002V57.4002C131.6 57.3002 131.7 57.2002 131.8 57.2002H132.2C132.3 57.2002 132.4 57.2002 132.4 57.4002V60.4002L134.7 57.8002Z" fill="#232325"/>
<path d="M139.5 57.4002C139.5 57.3002 139.6 57.2002 139.7 57.2002H140.2C140.3 57.2002 140.4 57.2002 140.4 57.4002V61.8002C140.4 62.0002 140.3 62.0002 140.2 62.0002H139.7C139.6 62.0002 139.5 62.0002 139.5 61.8002V60.3002C139.2 60.4002 138.6 60.6002 138.1 60.6002C136.9 60.6002 136.5 59.9002 136.5 58.9002V57.5002C136.5 57.4002 136.6 57.3002 136.7 57.3002H137.1C137.2 57.3002 137.3 57.3002 137.3 57.5002V58.8002C137.3 59.5002 137.4 59.9002 138.3 59.9002C138.7 59.9002 139.2 59.8002 139.4 59.7002V57.4002H139.5Z" fill="#232325"/>
<path d="M142.3 59.6996C142.3 60.5996 142.8 61.3996 143.8 61.3996C144.2 61.3996 144.7 61.2996 145 61.1996C145.1 61.1996 145.2 61.1996 145.2 61.2996L145.3 61.5996C145.3 61.6996 145.3 61.7996 145.2 61.7996C144.8 61.9996 144.1 62.0996 143.6 62.0996C142.1 62.0996 141.3 61.0996 141.3 59.5996C141.3 58.0996 142.2 57.0996 143.6 57.0996C144.9 57.0996 145.6 58.0996 145.6 59.1996V59.4996C145.6 59.6996 145.6 59.7996 145.3 59.7996H142.3V59.6996ZM144.9 59.0996V58.9996C144.9 58.2996 144.5 57.7996 143.7 57.7996C142.9 57.7996 142.4 58.3996 142.4 59.1996H144.9V59.0996Z" fill="#232325"/>
<path d="M150.1 57.9002C150.1 58.0002 150 58.0002 149.9 58.0002C149.6 57.9002 149.3 57.8002 148.9 57.8002C147.9 57.8002 147.4 58.5002 147.4 59.6002C147.4 60.6002 147.8 61.5002 148.9 61.5002C149.3 61.5002 149.6 61.4002 150 61.3002C150.1 61.3002 150.2 61.3002 150.2 61.4002L150.3 61.7002C150.3 61.8002 150.3 61.9002 150.2 61.9002C149.8 62.1002 149.3 62.2002 148.9 62.2002C147.3 62.2002 146.6 61.2002 146.6 59.7002C146.6 58.2002 147.5 57.2002 149 57.2002C149.5 57.2002 149.9 57.3002 150.3 57.5002C150.4 57.5002 150.4 57.6002 150.4 57.7002L150.1 57.9002Z" fill="#232325"/>
<path d="M152.4 59.2996C153.1 59.2996 153.4 59.0996 153.5 58.5996L153.7 58.0996C153.9 57.5996 154 57.1996 154.8 57.1996H154.9C155 57.1996 155 57.1996 155 57.2996V57.6996C155 57.7996 155 57.7996 154.8 57.7996H154.7C154.4 57.7996 154.4 57.9996 154.2 58.2996L154 58.7996C153.9 59.1996 153.6 59.4996 153.3 59.5996C153.6 59.6996 153.8 59.8996 154 60.1996L154.9 61.6996C155 61.7996 155 61.8996 154.8 61.8996H154.3C154.2 61.8996 154.1 61.7996 154 61.6996L153.3 60.3996C153 59.8996 152.8 59.7996 152.2 59.7996H151.8V61.6996C151.8 61.8996 151.7 61.8996 151.6 61.8996H151.1C151 61.8996 150.9 61.8996 150.9 61.6996V57.2996C150.9 57.1996 151 57.0996 151.1 57.0996H151.6C151.7 57.0996 151.8 57.0996 151.8 57.2996V59.1996H152.4V59.2996Z" fill="#232325"/>
<path d="M159.3 61.2996C159.1 61.6996 158.4 62.0996 157.8 62.0996C156.4 62.0996 155.8 60.8996 155.8 59.6996C155.8 57.9996 156.8 57.0996 157.9 57.0996C158.4 57.0996 158.9 57.2996 159.2 57.6996V57.3996C159.2 57.2996 159.3 57.1996 159.4 57.1996H159.8C159.9 57.1996 160 57.2996 160 57.3996V60.8996C160 61.2996 160 61.3996 160.2 61.3996C160.3 61.3996 160.4 61.3996 160.4 61.4996V61.7996C160.4 61.8996 160.3 61.9996 160.2 61.9996H160C159.5 61.9996 159.3 61.6996 159.3 61.2996ZM159.3 58.4996C159.1 57.9996 158.6 57.7996 158.1 57.7996C157.3 57.7996 156.8 58.4996 156.8 59.6996C156.8 60.7996 157.3 61.4996 158 61.4996C158.6 61.4996 159.1 60.9996 159.3 60.4996V58.4996Z" fill="#232325"/>
<path d="M163.7 59.9998C163.2 59.9998 163 60.1998 162.7 60.6998L162.1 61.8998C162 61.9998 162 62.0998 161.8 62.0998H161.2C161.1 62.0998 161 61.9998 161.1 61.8998L161.9 60.4998C162 60.2998 162.2 59.9998 162.4 59.8998C161.8 59.7998 161.4 59.3998 161.4 58.6998C161.4 58.1998 161.6 57.7998 161.9 57.5998C162.2 57.2998 162.8 57.2998 163.5 57.2998H164.9C165 57.2998 165.1 57.2998 165.1 57.4998V61.8998C165.1 62.0998 165 62.0998 164.9 62.0998H164.4C164.3 62.0998 164.2 62.0998 164.2 61.8998V59.9998H163.7ZM164.3 57.7998H163.5C162.8 57.7998 162.4 57.9998 162.4 58.5998C162.4 59.1998 162.9 59.3998 163.5 59.3998H164.3V57.7998Z" fill="#232325"/>
<path d="M170 62.0998C169.4 62.0998 169 61.9998 168.6 61.7998C168.5 61.7998 168.5 61.6998 168.5 61.5998L168.6 61.2998C168.6 61.1998 168.7 61.1998 168.8 61.1998C169.1 61.2998 169.6 61.3998 170 61.3998C170.7 61.3998 171.2 61.0998 171.2 60.4998C171.2 59.8998 170.6 59.5998 169.9 59.5998H169.4C169.3 59.5998 169.3 59.5998 169.3 59.4998V59.0998C169.3 58.9998 169.3 58.9998 169.4 58.9998H169.9C170.6 58.9998 171 58.7998 171 58.1998C171 57.6998 170.6 57.4998 170 57.4998C169.7 57.4998 169.3 57.5998 168.9 57.6998C168.8 57.6998 168.7 57.6998 168.7 57.5998L168.6 57.2998C168.6 57.1998 168.6 57.0998 168.7 57.0998C169.1 56.8998 169.6 56.7998 170.2 56.7998C171.2 56.7998 172 57.1998 172 58.0998C172 58.5998 171.8 58.9998 171.2 59.1998C171.8 59.2998 172.2 59.7998 172.2 60.3998C172.1 61.5998 171.3 62.0998 170 62.0998Z" fill="#232325"/>
<path d="M175.1 62.0996C173.6 62.0996 172.9 60.9996 172.9 59.5996C172.9 58.1996 173.7 57.0996 175.2 57.0996C176.7 57.0996 177.4 58.1996 177.4 59.5996C177.5 60.9996 176.6 62.0996 175.1 62.0996ZM175.2 57.6996C174.1 57.6996 173.8 58.5996 173.8 59.4996C173.8 60.3996 174.1 61.3996 175.2 61.3996C176.2 61.3996 176.6 60.4996 176.6 59.5996C176.6 58.6996 176.2 57.6996 175.2 57.6996Z" fill="#232325"/>
<path d="M181.7 57.4002C181.7 57.3002 181.8 57.2002 181.9 57.2002H182.3C182.4 57.2002 182.5 57.2002 182.5 57.4002V61.8002C182.5 62.0002 182.4 62.0002 182.3 62.0002H181.9C181.8 62.0002 181.7 62.0002 181.7 61.8002V59.8002H179.4V61.8002C179.4 62.0002 179.3 62.0002 179.2 62.0002H178.7C178.6 62.0002 178.5 62.0002 178.5 61.8002V57.4002C178.5 57.3002 178.6 57.2002 178.7 57.2002H179.2C179.3 57.2002 179.4 57.2002 179.4 57.4002V59.2002H181.7V57.4002Z" fill="#232325"/>
<path d="M187.1 61.2996C186.9 61.6996 186.2 62.0996 185.6 62.0996C184.2 62.0996 183.6 60.8996 183.6 59.6996C183.6 57.9996 184.6 57.0996 185.7 57.0996C186.2 57.0996 186.7 57.2996 187 57.6996V57.3996C187 57.2996 187.1 57.1996 187.2 57.1996H187.6C187.7 57.1996 187.8 57.2996 187.8 57.3996V60.8996C187.8 61.2996 187.8 61.3996 188 61.3996C188.1 61.3996 188.2 61.3996 188.2 61.4996V61.7996C188.2 61.8996 188.2 61.9996 188 61.9996H187.6C187.3 61.9996 187.1 61.6996 187.1 61.2996ZM187.1 58.4996C186.9 57.9996 186.4 57.7996 185.9 57.7996C185.1 57.7996 184.6 58.4996 184.6 59.6996C184.6 60.7996 185.1 61.4996 185.8 61.4996C186.4 61.4996 186.9 60.9996 187.1 60.4996V58.4996Z" fill="#232325"/>
</g>
<defs>
<clipPath id="clip0_699_3951">
<rect width="188.7" height="64.2" fill="white"/>
</clipPath>
</defs>
</svg>
