<svg width="140" height="32" viewBox="0 0 140 32" fill="none" xmlns="http://www.w3.org/2000/svg">
<g clip-path="url(#clip0_699_2629)">
<mask id="mask0_699_2629" style="mask-type:luminance" maskUnits="userSpaceOnUse" x="0" y="0" width="140" height="32">
<path d="M0 0H140V32H0V0Z" fill="white"/>
</mask>
<g mask="url(#mask0_699_2629)">
<mask id="mask1_699_2629" style="mask-type:luminance" maskUnits="userSpaceOnUse" x="0" y="0" width="141" height="33">
<path d="M0.0200195 0H140.02V32.183H0.0200195V0Z" fill="white"/>
</mask>
<g mask="url(#mask1_699_2629)">
<path d="M4.98902 18.5158H8.31202L7.16202 15.0338L6.69902 12.5708H6.59002L6.12802 15.0558L4.99802 18.5158H4.98902ZM116.713 22.9628C116.713 22.4428 116.874 22.0304 117.197 21.7258C117.52 21.4228 117.95 21.2708 118.477 21.2708C119.036 21.2708 119.477 21.4228 119.811 21.7258C120.133 22.0298 120.294 22.4421 120.295 22.9628C120.295 23.4814 120.134 23.8971 119.811 24.2098C119.488 24.5248 119.047 24.6768 118.477 24.6768C117.95 24.6768 117.52 24.5248 117.197 24.2098C116.875 23.8958 116.713 23.4838 116.713 22.9628ZM133.04 13.2658V19.6108C133.04 20.5218 133.147 21.1728 133.362 21.5738C133.577 21.9758 133.997 22.1818 134.61 22.1818C135.158 22.1818 135.61 22.0188 135.976 21.6938C136.341 21.3678 136.61 20.9664 136.782 20.4898V13.2768H139.665V21.0538C139.665 21.6608 139.697 22.2688 139.751 22.8538C139.805 23.4398 139.901 23.9718 140.02 24.4488H137.847L137.342 22.7998H137.256C136.9 23.3749 136.414 23.858 135.836 24.2098C135.234 24.5798 134.513 24.7628 133.685 24.7628C133.174 24.7713 132.665 24.6946 132.179 24.5358C131.749 24.3967 131.365 24.1413 131.071 23.7978C130.781 23.4508 130.555 22.9948 130.394 22.4098C130.243 21.8238 130.157 21.0968 130.157 20.2188V13.2768H133.04V13.2658ZM128.609 15.9878C128.146 15.8258 127.737 15.7378 127.372 15.7378C126.855 15.7378 126.425 15.8798 126.081 16.1508C125.737 16.4218 125.5 16.7808 125.382 17.2138V24.4268H122.5V13.2548H124.737L125.07 14.7298H125.156C125.404 14.1768 125.748 13.7538 126.178 13.4608C126.608 13.1678 127.114 13.0158 127.684 13.0158C128.071 13.0158 128.501 13.1028 128.985 13.2658L128.609 15.9878ZM72.639 21.3468C72.639 21.0538 72.509 20.8148 72.262 20.6308C71.9747 20.4311 71.6641 20.2672 71.337 20.1428C70.9368 19.9783 70.5316 19.8262 70.122 19.6868C69.684 19.5385 69.2735 19.3188 68.907 19.0368C68.5308 18.7517 68.2162 18.3935 67.982 17.9838C67.734 17.5608 67.605 17.0078 67.605 16.3458C67.605 15.2398 67.928 14.4048 68.584 13.8188C69.229 13.2328 70.176 12.9508 71.402 12.9508C72.241 12.9508 73.004 13.0378 73.682 13.2218C74.359 13.3958 74.897 13.6018 75.274 13.8298L74.628 15.9338C74.284 15.8038 73.865 15.6628 73.348 15.5108C72.8382 15.3606 72.3095 15.2839 71.778 15.2828C70.918 15.2828 70.498 15.6198 70.498 16.2918C70.498 16.5628 70.628 16.7798 70.875 16.9418C71.122 17.1058 71.435 17.2568 71.8 17.3978C72.165 17.5388 72.574 17.6908 73.015 17.8538C73.456 18.0168 73.865 18.2338 74.23 18.4938C74.595 18.7538 74.908 19.0898 75.155 19.5138C75.403 19.9258 75.532 20.4678 75.532 21.1188C75.532 22.2468 75.177 23.1368 74.456 23.7868C73.736 24.4381 72.6607 24.7638 71.23 24.7638C70.4841 24.7712 69.7411 24.6688 69.025 24.4598C68.337 24.2538 67.777 24.0258 67.358 23.7548L68.154 21.5848C68.498 21.7808 68.939 21.9648 69.509 22.1598C70.069 22.3448 70.649 22.4418 71.24 22.4418C71.67 22.4418 72.015 22.3548 72.273 22.1918C72.531 22.0298 72.66 21.7588 72.66 21.3678L72.639 21.3468ZM58.904 13.2548V19.5998C58.904 20.5118 59.012 21.1618 59.227 21.5638C59.442 21.9658 59.862 22.1708 60.475 22.1708C61.023 22.1708 61.475 22.0078 61.84 21.6828C62.2066 21.3562 62.4843 20.9419 62.647 20.4788V13.2658H65.53V21.0428C65.53 21.6498 65.562 22.2578 65.615 22.8428C65.669 23.4288 65.766 23.9608 65.885 24.4378H63.712L63.206 22.7888H63.12C62.7642 23.3639 62.2777 23.847 61.7 24.1988C61.098 24.5688 60.378 24.7528 59.55 24.7528C59.0388 24.761 58.5299 24.6839 58.044 24.5248C57.6136 24.3857 57.2302 24.1303 56.936 23.7868C56.646 23.4398 56.42 22.9848 56.258 22.3988C56.108 21.8128 56.022 21.0858 56.022 20.2078V13.2658H58.904V13.2548ZM49.204 15.4458C48.676 15.4458 48.235 15.5868 47.913 15.8578C47.579 16.1288 47.321 16.5308 47.149 17.0508V21.9208C47.385 22.0408 47.644 22.1278 47.913 22.1708C48.181 22.2148 48.483 22.2358 48.783 22.2358C49.569 22.2358 50.16 21.9538 50.569 21.3788C50.9777 20.8041 51.182 19.8931 51.182 18.6458C51.182 16.5198 50.526 15.4458 49.214 15.4458H49.204ZM44.267 8.78576H47.149V14.1438H47.235C47.547 13.7858 47.945 13.5038 48.429 13.2978C48.94 13.0853 49.4887 12.9785 50.042 12.9838C51.376 12.9838 52.387 13.4388 53.086 14.3608C53.785 15.2718 54.14 16.6708 54.14 18.5478C54.14 20.5548 53.645 22.0838 52.666 23.1258C51.688 24.1658 50.332 24.6878 48.622 24.6878C47.676 24.6878 46.816 24.6118 46.03 24.4478C45.245 24.2978 44.654 24.1128 44.256 23.9278V8.78576H44.267ZM34.813 18.8408C34.813 19.3288 34.856 19.7844 34.942 20.2078C35.028 20.6198 35.168 20.9878 35.34 21.3028C35.512 21.6178 35.748 21.8558 36.039 22.0298C36.329 22.2031 36.673 22.2898 37.071 22.2898C37.824 22.2898 38.384 22.0198 38.76 21.4658C39.126 20.9128 39.308 20.0458 39.308 18.8518C39.308 17.8218 39.136 16.9968 38.803 16.3568C38.459 15.7278 37.889 15.4028 37.071 15.4028C36.361 15.4028 35.813 15.6728 35.415 16.2048C35.017 16.7368 34.813 17.6148 34.813 18.8408ZM31.844 18.8408C31.844 16.9538 32.307 15.4888 33.221 14.4698C34.135 13.4508 35.426 12.9398 37.071 12.9398C37.953 12.9398 38.728 13.0808 39.373 13.3628C39.9955 13.6312 40.5475 14.0398 40.986 14.5568C41.416 15.0668 41.739 15.6948 41.954 16.4218C42.1693 17.1484 42.277 17.9511 42.277 18.8298C42.277 20.7178 41.825 22.1818 40.911 23.2018C40.007 24.2218 38.717 24.7308 37.071 24.7308C36.189 24.7308 35.415 24.5898 34.77 24.3078C34.1437 24.0411 33.5878 23.6327 33.146 23.1148C32.705 22.6048 32.382 21.9748 32.167 21.2488C31.9517 20.5221 31.844 19.7194 31.844 18.8408ZM23.606 13.2548H25.133V11.1498L28.016 10.3248V13.2538H30.715V15.7158H28.015V20.0008C28.015 20.7708 28.091 21.3348 28.252 21.6608C28.402 21.9958 28.693 22.1588 29.123 22.1588C29.413 22.1588 29.672 22.1268 29.887 22.0718C30.102 22.0168 30.339 21.9208 30.607 21.8018L31.113 24.0358C30.715 24.2308 30.253 24.3938 29.715 24.5238C29.1875 24.6567 28.646 24.7259 28.102 24.7298C27.08 24.7298 26.338 24.4698 25.854 23.9378C25.37 23.4068 25.134 22.5378 25.134 21.3348V15.7048H23.606V13.2428V13.2548ZM17.293 19.1118L17.669 20.8368H17.777L18.088 19.0688L19.971 13.2658H23.068L18.443 24.5458H16.69L11.883 13.2658H15.228L17.293 19.1228V19.1118ZM8.99002 20.9668H4.22502L3.05302 24.4268H0.0200195L5.60202 8.67676H7.83902L13.421 24.4268H10.226L8.99002 20.9668Z" fill="black"/>
<path fill-rule="evenodd" clip-rule="evenodd" d="M85.5881 32.183H106.399C109.464 32.183 111.949 29.677 111.949 26.586V5.597C111.949 2.506 109.464 0 106.399 0H85.5881C82.5231 0 80.0381 2.506 80.0381 5.597V26.586C80.0381 29.677 82.5231 32.183 85.5881 32.183Z" fill="url(#paint0_linear_699_2629)"/>
<path d="M97.8481 23.4953H94.9981V12.6482C93.9466 13.6407 92.6865 14.3855 91.3101 14.8282V12.2142C92.0521 11.9642 92.8701 11.4983 93.7401 10.8142C94.6101 10.1302 95.2131 9.32825 95.5361 8.40625H97.8481V23.4942" fill="white"/>
</g>
</g>
</g>
<defs>
<linearGradient id="paint0_linear_699_2629" x1="95.9981" y1="0" x2="95.9981" y2="32.18" gradientUnits="userSpaceOnUse">
<stop stop-color="#FB993B"/>
<stop offset="1" stop-color="#F24E42"/>
</linearGradient>
<clipPath id="clip0_699_2629">
<rect width="140" height="32" fill="white"/>
</clipPath>
</defs>
</svg>
