<svg width="189" height="49" viewBox="0 0 189 49" fill="none" xmlns="http://www.w3.org/2000/svg">
<path fill-rule="evenodd" clip-rule="evenodd" d="M6.64844 26.4874C7.21249 27.2132 8.1444 27.8181 9.37061 28.181C10.7685 28.5681 14.2754 27.6245 15.379 26.439C15.7469 26.0519 16.1392 25.6406 16.4335 25.2051C16.7033 24.818 16.924 24.4067 17.0957 23.8744C15.845 23.3905 14.2754 23.5115 12.6814 23.8986C10.3761 24.4792 8.04631 25.6406 6.64844 26.4874Z" fill="#9E0054"/>
<path fill-rule="evenodd" clip-rule="evenodd" d="M34.1914 26.1767C34.9601 27.4173 36.076 28.2903 37.3159 28.7728C38.1094 29.0714 38.9526 29.2322 39.7461 29.2093C40.5396 29.1863 41.3083 29.0255 41.9779 28.6809C42.697 28.3133 43.3169 27.7389 43.6889 26.9808C42.6226 26.6821 41.7299 26.1537 40.986 25.5564C40.242 24.959 39.6469 24.2468 39.1757 23.5576C38.1094 23.7184 37.1671 24.063 36.3488 24.4766C35.4561 24.959 34.737 25.5564 34.1914 26.1767Z" fill="#9E0054"/>
<path fill-rule="evenodd" clip-rule="evenodd" d="M26.3114 18.8457C26.4295 18.6255 26.5476 18.3807 26.6657 18.1359C26.8724 17.6954 27.1086 17.2304 27.4629 16.7408C27.8468 16.2269 28.2306 15.8842 28.5849 15.5905C28.9097 15.3213 29.205 15.052 29.4412 14.7094C29.1459 14.0975 28.5259 12.5311 27.9354 10.9891C27.3448 9.47164 26.7543 7.97864 26.5476 7.53809C25.5142 7.95417 24.3331 8.81081 23.5654 9.9122C22.9454 10.7933 22.6206 11.8458 22.8863 12.9961L26.3114 18.8457Z" fill="#9E0054"/>
<path fill-rule="evenodd" clip-rule="evenodd" d="M2.84961 21.4195C3.19572 21.7125 3.44295 21.8723 3.66545 22.0055C4.03628 22.2186 4.33295 22.4051 4.8274 23.0444C5.22295 23.5771 5.91518 24.7758 6.26129 25.4417C8.11546 25.1221 10.736 23.7103 12.7633 22.6182C13.3072 22.3251 13.8263 22.0588 14.2466 21.819C13.9005 20.94 13.1341 20.1675 12.1946 19.5548C10.9585 18.7291 9.45047 18.143 8.2638 17.9033C7.79407 18.3561 7.44796 18.6758 7.07713 18.9422C6.70629 19.2352 6.28601 19.5016 5.7174 19.8478C5.22295 20.1409 4.72851 20.3806 4.2835 20.5671C3.73961 20.8334 3.22044 21.0732 2.84961 21.4195Z" fill="#9E0054"/>
<path fill-rule="evenodd" clip-rule="evenodd" d="M24.6799 23.5576C24.7597 21.8766 24.4937 20.3569 23.9884 19.0444C23.4033 17.5247 22.4724 16.2352 21.382 15.2221C20.5575 14.4622 19.0682 13.4491 17.366 12.6431C16.0628 12.0214 14.6267 11.5149 13.2969 11.3076C13.3501 14.6464 14.4937 17.6859 16.5682 19.9194C18.5097 21.9918 21.249 23.3734 24.6799 23.5576Z" fill="#9E0054"/>
<path fill-rule="evenodd" clip-rule="evenodd" d="M39.4874 13.7044L39.8897 11.3076C38.557 11.3326 37.2746 11.6072 36.0677 12.0816C33.6286 13.0053 31.4912 14.728 29.9574 16.7253C28.4487 18.7225 27.5183 21.0444 27.5435 23.1665C27.5435 23.9405 27.6692 24.7144 27.9458 25.4384C28.5996 25.4634 29.5299 25.3635 30.3849 25.1388C31.1895 24.9391 31.9187 24.6395 32.2959 24.29C32.7736 23.8656 32.8742 23.4661 33 22.9169C33.1508 22.3177 33.3268 21.5936 34.0309 20.4951C34.8607 19.2219 35.7659 18.4729 36.6208 17.7489C37.8278 16.7502 38.9342 15.8265 39.4874 13.7044Z" fill="#9E0054"/>
<path fill-rule="evenodd" clip-rule="evenodd" d="M20.3411 0.29447C19.55 0.441705 18.7852 0.613479 18.0469 0.834331C18.5215 1.66866 19.1808 2.62569 19.8928 3.3864C20.4729 3.99988 21.0794 4.49067 21.6596 4.71152C22.0815 4.0735 22.4243 3.26371 22.6353 2.3803C22.7935 1.61958 22.8462 0.809792 22.7407 0C21.8969 0.0490783 21.1058 0.147235 20.3411 0.29447Z" fill="#9E0054"/>
<path fill-rule="evenodd" clip-rule="evenodd" d="M15.9998 1.42769C15.5187 1.62181 15.0617 1.81593 14.6047 2.03432C14.4845 2.44683 14.3401 2.88361 14.1718 3.34465C13.4261 5.50426 12.5121 8.10066 14.4845 9.16833L21.8446 12.25C21.8206 6.96018 20.3533 5.09175 18.9823 3.36892C18.4051 2.61669 17.8278 1.88873 17.3948 0.942383C16.9378 1.08797 16.4568 1.25783 15.9998 1.42769Z" fill="#9E0054"/>
<path fill-rule="evenodd" clip-rule="evenodd" d="M10.0247 3.77444C9.50541 4.12344 9.01345 4.49737 8.54883 4.8713C8.93146 5.49452 9.50541 6.06788 10.1887 6.54152C10.8173 6.99024 11.5552 7.33924 12.3478 7.53867L11.5006 2.82715C10.9813 3.12629 10.4893 3.45037 10.0247 3.77444Z" fill="#9E0054"/>
<path fill-rule="evenodd" clip-rule="evenodd" d="M6.59516 7.64252C6.28037 7.99145 5.98979 8.36531 5.69922 8.7641C5.82029 8.8638 5.89293 8.91365 5.96558 8.96349C6.08665 9.03827 6.23194 9.11304 6.54673 9.36228C6.71623 9.51183 6.93416 9.71122 7.12788 9.91061C7.41845 10.2097 7.68481 10.5088 7.85432 10.6832C9.08926 12.1039 9.69462 13.6991 10.2516 15.1197C11.0749 17.2881 11.7529 19.0079 14.247 18.8334C14.1017 18.335 13.9322 17.8365 13.7627 17.338C13.5447 16.7149 13.3268 16.0669 13.1331 15.3441C12.6972 13.6991 12.6004 12.6772 12.5277 11.9295C12.3824 10.4589 12.3582 10.1848 9.88834 8.31547C9.64619 8.141 9.40405 7.91668 9.13769 7.71729C8.62918 7.29358 8.12068 6.89479 7.58795 6.5957C7.22474 6.89479 6.90995 7.26865 6.59516 7.64252Z" fill="#9E0054"/>
<path fill-rule="evenodd" clip-rule="evenodd" d="M3.16672 12.0735C2.69495 12.992 2.24801 13.9368 1.90039 14.934C3.04257 15.5901 4.18475 16.1937 5.42626 16.5874C6.64293 16.9548 7.98375 17.086 9.49839 16.8236C9.29975 15.5639 8.65416 14.1205 7.80994 12.8083C6.89123 11.3386 5.72422 10.0527 4.78068 9.42285C4.18476 10.2626 3.63849 11.1549 3.16672 12.0735Z" fill="#9E0054"/>
<path fill-rule="evenodd" clip-rule="evenodd" d="M1.3857 18.3475C1.21596 19.1235 1.07046 19.9273 0.949219 20.731C2.23441 20.6201 3.47111 20.343 4.48956 19.8718C5.38677 19.4561 6.13849 18.9295 6.64771 18.209C6.38098 18.0704 5.799 17.7655 5.09578 17.4329C4.05308 16.9341 2.76789 16.3521 1.99192 16.0195C1.77368 16.7678 1.55544 17.5438 1.3857 18.3475Z" fill="#9E0054"/>
<path fill-rule="evenodd" clip-rule="evenodd" d="M0 24.6288C0 24.7632 0 24.9246 0 25.059C1.28083 25.4354 2.7922 25.5698 3.76563 25.3009C4.12426 25.1934 4.40604 25.059 4.58536 24.8708C4.73906 24.6826 4.79029 24.4406 4.71344 24.1449C4.58536 23.661 4.12426 23.0157 3.17645 22.1823C2.74097 21.8059 2.25425 21.4564 1.66507 21.1876C1.20398 20.9725 0.691646 20.8112 0.153699 20.7305C0.102466 21.2682 0.051233 21.779 0 22.3167C0.0256165 22.9082 0 23.4997 0 24.0911C0 24.3062 0 24.4675 0 24.6288Z" fill="#9E0054"/>
<path fill-rule="evenodd" clip-rule="evenodd" d="M0.15485 27.4726C0.206467 27.8396 0.258084 28.1202 0.335509 28.4656C3.25186 29.178 6.94246 29.5882 9.49749 28.7247C6.68438 28.0123 6.83923 26.5444 3.17443 26.4149C2.03886 26.3717 0.800061 26.3717 0 26.4364C0.0516168 26.8034 0.103234 27.1488 0.15485 27.4726Z" fill="#9E0054"/>
<path fill-rule="evenodd" clip-rule="evenodd" d="M7.71487 42.1695C11.0487 45.5977 15.3385 48.0206 20.0941 49.0001C20.8049 46.4225 22.2512 40.7777 22.6679 35.7772C22.8641 33.3801 22.8641 31.1376 22.4228 29.4364C22.0061 27.761 21.1972 26.6527 19.7999 26.4207C19.4322 26.3691 19.0155 26.3691 18.5742 26.4465C15.8042 27.0909 14.1128 27.9672 12.642 28.7405C9.87204 30.2097 7.88646 31.2407 0.949219 29.4107C2.00329 34.3338 4.40558 38.7414 7.71487 42.1695Z" fill="#9E0054"/>
<path fill-rule="evenodd" clip-rule="evenodd" d="M39.4944 43.9884C43.7117 40.8404 46.8874 36.3828 48.4371 31.2453L48.4117 31.2201C46.8365 30.3135 46.7095 30.2127 44.7533 27.9965C44.3214 28.198 43.8641 28.4499 43.4068 28.7017C41.8825 29.558 40.2057 30.515 37.8684 30.2127C35.6328 29.9357 34.642 28.8024 33.702 27.6692C33.2955 27.2158 32.9144 26.7625 32.4317 26.3848C30.1452 27.644 27.9095 30.7668 26.436 35.0984C25.1403 38.9264 24.429 43.7114 24.7846 49.0001C30.2976 48.9245 35.3787 47.0861 39.4944 43.9884Z" fill="#9E0054"/>
<path fill-rule="evenodd" clip-rule="evenodd" d="M50.0333 28.8044C50.1709 28.312 50.281 27.8195 50.3361 27.3271C49.6204 27.3453 48.9321 27.4001 48.299 27.5277C47.6658 27.6554 47.0877 27.8378 46.5371 28.1113C46.8124 28.7862 48.354 29.6616 49.5653 30.154C49.7855 29.6798 49.8956 29.2968 50.0333 28.8044Z" fill="#9E0054"/>
<path fill-rule="evenodd" clip-rule="evenodd" d="M50.3373 23.3481C50.3373 23.0999 50.3103 22.8516 50.2832 22.5785C48.8221 22.2062 47.1986 21.8338 45.548 21.7096C43.9245 21.5855 42.301 21.7593 40.8398 22.4792C40.9751 22.9509 41.4622 23.5964 42.0575 24.217C42.8422 25.0363 43.7892 25.8307 44.3845 26.1535C44.7904 26.3769 45.6292 26.4266 46.5492 26.3521C47.8209 26.2528 49.2821 25.9797 50.2562 25.7314C50.2832 25.4832 50.2832 25.2597 50.2832 25.0115C50.2832 24.7632 50.3103 24.4901 50.3103 24.1922C50.3373 23.9191 50.3373 23.6212 50.3373 23.3481Z" fill="#9E0054"/>
<path fill-rule="evenodd" clip-rule="evenodd" d="M50.2297 20.8991C50.176 20.5952 50.1491 20.3167 50.0954 20.0128L50.0685 19.9875C49.2088 19.6077 47.6507 18.9493 44.9105 16.8982C44.7761 16.7969 44.6687 16.6957 44.5343 16.6197C43.9702 16.1639 43.5404 15.8094 42.412 16.1639C40.6658 16.6957 38.7853 17.8351 37.254 19.2532C35.857 20.5446 34.7287 22.0639 34.1914 23.5579C35.0242 23.2287 35.7227 22.8742 36.3675 22.545C37.7913 21.836 39.1077 21.1523 41.7135 20.7219C45.206 20.1648 46.7104 20.6206 48.7521 21.2536C49.2357 21.4055 49.773 21.5575 50.3371 21.7094C50.2834 21.4309 50.2565 21.1776 50.2297 20.8991Z" fill="#9E0054"/>
<path fill-rule="evenodd" clip-rule="evenodd" d="M48.8971 17.0202C48.6906 16.3881 48.4583 15.756 48.2002 15.1239L44.6387 15.0771C45.2323 16.7159 47.5034 18.144 49.3874 18.8463C49.2584 18.2376 49.1035 17.6289 48.8971 17.0202Z" fill="#9E0054"/>
<path fill-rule="evenodd" clip-rule="evenodd" d="M46.7558 12.6026C46.4583 12.1586 46.1608 11.7331 45.8176 11.3076C41.401 11.6406 41.3553 11.8071 41.0349 12.9911C41.012 13.1206 40.9662 13.2501 40.9434 13.3796C40.8061 13.8791 40.7832 14.0826 41.012 14.1196C41.2408 14.1566 41.6299 14.1196 42.2706 14.0641C43.3004 13.9716 44.9709 13.8051 47.4881 13.8421C47.2821 13.4351 47.0304 13.0096 46.7558 12.6026Z" fill="#9E0054"/>
<path fill-rule="evenodd" clip-rule="evenodd" d="M44.3574 8.27735C43.9026 7.69747 43.4478 7.14659 42.9662 6.5957C42.6987 7.17558 42.4579 7.75546 42.2439 8.36433C42.0298 8.97321 41.8961 9.64007 41.7891 10.3649L45.5881 10.046C45.1868 9.40812 44.7855 8.82824 44.3574 8.27735Z" fill="#9E0054"/>
<path fill-rule="evenodd" clip-rule="evenodd" d="M40.6157 4.95093C40.2016 4.529 39.7875 4.1352 39.3734 3.76953L39.1204 4.02269C38.0392 5.14783 37.4181 5.76665 35.3707 6.69489L35.1406 11.308C35.5547 11.2236 35.9228 11.1673 36.2448 11.0829C37.5791 10.8016 38.4302 10.6329 40.2016 10.7173L41.7889 6.21671C41.4208 5.79478 41.0297 5.37285 40.6157 4.95093Z" fill="#9E0054"/>
<path fill-rule="evenodd" clip-rule="evenodd" d="M37.7406 2.59724C37.3189 2.34443 36.8972 2.1146 36.4533 1.88477C36.3201 2.25249 36.2091 2.66619 36.1648 3.10287C36.0982 3.63147 36.076 4.18307 36.0982 4.71168C36.653 4.64273 37.2079 4.52781 37.6962 4.29798C38.1845 4.09114 38.6062 3.79236 38.9391 3.37866C38.5618 3.12585 38.1401 2.85005 37.7406 2.59724Z" fill="#9E0054"/>
<path fill-rule="evenodd" clip-rule="evenodd" d="M33.7092 0.492442C33.2406 0.311016 32.746 0.155508 32.2513 0C31.5224 2.04752 30.377 3.11016 29.3617 4.0432C27.5134 5.72787 26.2638 6.86827 29.7522 13.1923C30.1687 13.0108 30.4811 12.7776 30.8195 12.5443C31.4703 12.0778 32.2513 11.5335 34.1517 10.9892C34.1257 8.55293 34.1517 7.12744 34.2819 5.77971C34.412 4.43197 34.6724 3.18791 35.141 1.08856C34.6724 0.881211 34.2038 0.673868 33.7092 0.492442Z" fill="#9E0054"/>
<path fill-rule="evenodd" clip-rule="evenodd" d="M29.2364 0.220164C28.5151 0.132099 27.7938 0.0660493 27.0726 0C26.5244 1.27695 26.5821 2.9502 26.611 4.44732V4.71152C27.4476 4.51337 28.342 3.96296 29.1787 3.25843C30.1308 2.44383 30.9386 1.43107 31.3425 0.550411C30.6501 0.418312 29.9577 0.30823 29.2364 0.220164Z" fill="#9E0054"/>
<path fill-rule="evenodd" clip-rule="evenodd" d="M167.959 23.4139H176.948L172.441 13.8082L167.959 23.4139ZM168.581 7.53809H176.176L188.999 33.9226H181.903L179.512 28.8062H165.469L163.078 33.9226H155.758L168.581 7.53809Z" fill="#9E0054"/>
<path fill-rule="evenodd" clip-rule="evenodd" d="M149.952 16.7676C149.952 16.0654 149.88 15.4886 149.709 15.0622C149.539 14.6107 149.32 14.2596 149.053 14.0088C148.786 13.758 148.47 13.5824 148.105 13.4821C147.741 13.3818 147.352 13.3316 146.938 13.3316H137.921V20.1535H146.938C147.352 20.1535 147.741 20.1033 148.105 20.003C148.47 19.9027 148.786 19.7271 149.053 19.4763C149.32 19.2255 149.539 18.8744 149.709 18.448C149.88 18.0467 149.952 17.4699 149.952 16.7676ZM137.921 25.7715V33.9226H131.066V7.53809H146.744C148.032 7.53809 149.272 7.66349 150.463 7.88921C151.654 8.14001 152.723 8.59146 153.671 9.26863C154.595 9.9458 155.348 10.8989 155.883 12.1027C156.442 13.3066 156.71 14.8615 156.71 16.7676C156.71 18.6988 156.418 20.2538 155.859 21.4326C155.3 22.6114 154.546 23.5143 153.623 24.1663C152.699 24.7934 151.63 25.2197 150.414 25.4454C149.223 25.6712 147.984 25.7715 146.72 25.7715H137.921Z" fill="#9E0054"/>
<path fill-rule="evenodd" clip-rule="evenodd" d="M104.354 26.1979L117.339 7.53809H124.417V33.9226H117.912V15.7645L104.877 33.9226H97.8242V7.53809H104.354V26.1979Z" fill="#9E0054"/>
<path fill-rule="evenodd" clip-rule="evenodd" d="M70.5808 33.9226L63.4327 16.4165V33.9226H56.9844V7.53809H66.3819L74.0299 26.3734L81.9278 7.53809H91.1753V33.9226H84.7271V16.4918L77.504 33.9226H70.5808Z" fill="#9E0054"/>
<path fill-rule="evenodd" clip-rule="evenodd" d="M187.233 42.8159C187.233 42.6449 187.209 42.4983 187.16 42.3762C187.111 42.254 187.062 42.1807 186.988 42.1074C186.915 42.0342 186.841 42.0097 186.743 41.9853C186.645 41.9609 186.547 41.9609 186.448 41.9609H184.118V43.671H186.448C186.547 43.671 186.669 43.671 186.743 43.6465C186.841 43.6221 186.915 43.5732 186.988 43.5244C187.062 43.4511 187.111 43.3778 187.16 43.2557C187.209 43.1335 187.233 42.9869 187.233 42.8159ZM184.118 45.0635V47.1156H182.352V40.5195H186.424C186.767 40.5195 187.086 40.5439 187.381 40.6172C187.7 40.6661 187.969 40.7882 188.215 40.9592C188.46 41.1302 188.656 41.3745 188.779 41.6677C188.926 41.9609 189 42.3517 189 42.8403C189 43.3289 188.926 43.7198 188.779 44.013C188.632 44.3061 188.436 44.526 188.19 44.697C187.945 44.868 187.675 44.9658 187.356 45.0146C187.037 45.0635 186.718 45.0879 186.399 45.0879H184.118V45.0635Z" fill="#9E0054"/>
<path fill-rule="evenodd" clip-rule="evenodd" d="M177.171 41.9609H174.754V40.5195H181.402V41.9609H179.01V47.1156H177.171V41.9609Z" fill="#9E0054"/>
<path fill-rule="evenodd" clip-rule="evenodd" d="M173.804 40.5195V47.1157H172.058V44.5505H168.928V47.1157H167.156V40.5195H168.928V43.1091H172.058V40.5195H173.804Z" fill="#9E0054"/>
<path fill-rule="evenodd" clip-rule="evenodd" d="M166.18 44.4528H161.473V45.6987H166.207V47.1157H159.559V40.5195H166.18V41.9609H161.473V43.1824H166.18V44.4528Z" fill="#9E0054"/>
<path fill-rule="evenodd" clip-rule="evenodd" d="M157.151 47.0994H151.012V40.5195H152.729V45.686H155.74V40.5195H157.457V45.686H158.61V49.0003H157.151V47.0994Z" fill="#9E0054"/>
<path fill-rule="evenodd" clip-rule="evenodd" d="M142.967 39.577C142.492 39.577 142.136 39.5504 141.809 39.4708C141.512 39.4177 141.275 39.3116 141.067 39.1788C140.889 39.0461 140.77 38.8603 140.681 38.6214C140.622 38.4091 140.562 38.1436 140.562 37.8251V37.6924H141.661V37.7986C141.661 37.9578 141.69 38.0905 141.72 38.1967C141.75 38.3029 141.839 38.4091 141.928 38.4621C142.017 38.5418 142.165 38.5683 142.314 38.6214C142.492 38.648 142.699 38.6745 142.937 38.6745C143.204 38.6745 143.412 38.648 143.56 38.6214C143.738 38.5949 143.857 38.5418 143.946 38.4621C144.035 38.3825 144.094 38.3029 144.154 38.1967C144.183 38.0905 144.213 37.9578 144.213 37.7986V37.6924H145.311V37.7986C145.311 38.1171 145.282 38.3825 145.193 38.5949C145.103 38.8072 144.985 38.993 144.807 39.1523C144.629 39.285 144.391 39.3912 144.065 39.4443C143.827 39.5239 143.441 39.577 142.967 39.577Z" fill="#9E0054"/>
<path fill-rule="evenodd" clip-rule="evenodd" d="M141.245 45.1857L144.508 40.5195H146.262V47.1157H144.654V42.5961L141.367 47.1157H139.613V40.5195H141.245V45.1857Z" fill="#9E0054"/>
<path fill-rule="evenodd" clip-rule="evenodd" d="M132.931 45.1857L136.661 40.5195H138.664V47.1157H136.8V42.5961L133.07 47.1157H131.066V40.5195H132.931V45.1857Z" fill="#9E0054"/>
<path fill-rule="evenodd" clip-rule="evenodd" d="M128.47 43.6954L131.067 47.1157H128.856L126.757 44.4283H125.458V47.1157H123.469V40.5195H125.458V43.2068H126.757L128.884 40.5195H130.984L128.47 43.6954Z" fill="#9E0054"/>
<path fill-rule="evenodd" clip-rule="evenodd" d="M123.469 47.1157H120.049C119.507 47.1157 119.045 47.0664 118.638 46.9926C118.231 46.8941 117.879 46.7465 117.607 46.5003C117.336 46.2542 117.146 45.9096 117.01 45.4912C116.875 45.0728 116.82 44.5067 116.82 43.8176C116.82 43.1284 116.875 42.5624 117.01 42.144C117.146 41.7255 117.336 41.381 117.607 41.1348C117.879 40.8887 118.204 40.7164 118.638 40.6426C119.045 40.5441 119.534 40.5195 120.049 40.5195H123.469V41.9717H120.049C119.805 41.9717 119.588 41.9963 119.425 42.0455C119.263 42.0947 119.127 42.1932 119.018 42.3409C118.91 42.4885 118.828 42.6608 118.801 42.9069C118.747 43.1531 118.72 43.4484 118.72 43.8422C118.72 44.2114 118.747 44.5314 118.801 44.7775C118.855 45.0236 118.937 45.2205 119.018 45.3436C119.127 45.4912 119.263 45.5651 119.425 45.6143C119.588 45.6635 119.805 45.6881 120.049 45.6881H123.469V47.1157Z" fill="#9E0054"/>
<path fill-rule="evenodd" clip-rule="evenodd" d="M115.871 40.5195V47.1157H114.1V44.5505H110.97V47.1157H109.223V40.5195H110.97V43.1091H114.1V40.5195H115.871Z" fill="#9E0054"/>
<path fill-rule="evenodd" clip-rule="evenodd" d="M102.299 45.1856L105.551 40.5195H107.322V47.1156H105.696V42.596L102.445 47.1156H100.674V40.5195H102.299V45.1856Z" fill="#9E0054"/>
<path fill-rule="evenodd" clip-rule="evenodd" d="M98.0828 47.0994H91.1758V40.5195H93.1076V45.6859H96.495V40.5195H98.4268V45.6859H99.7235V49.0002H98.0828V47.0994Z" fill="#9E0054"/>
<path fill-rule="evenodd" clip-rule="evenodd" d="M85.2038 45.1856L88.4551 40.5195H90.2264V47.1156H88.6007V42.596L85.3494 47.1156H83.5781V40.5195H85.2038V45.1856Z" fill="#9E0054"/>
<path fill-rule="evenodd" clip-rule="evenodd" d="M77.4523 44.3212C77.4279 44.5893 77.379 44.8574 77.3302 45.0767C77.2813 45.296 77.2325 45.5154 77.1592 45.686H79.6014V41.9574H77.6721L77.4523 44.3212ZM81.0668 47.0994H75.5962V49.0003H74.082V45.686H74.9368C75.0833 45.686 75.2054 45.6616 75.3031 45.6128C75.4008 45.5641 75.4985 45.491 75.5962 45.3691C75.6695 45.2473 75.7427 45.1011 75.7916 44.8817C75.8404 44.6868 75.8893 44.4187 75.9137 44.1019L76.28 40.5195H81.4087V45.686H82.6298V49.0003H81.1156V47.0994H81.0668Z" fill="#9E0054"/>
<path fill-rule="evenodd" clip-rule="evenodd" d="M73.0867 44.4528H69.0909V45.6987H73.1321V47.1157H67.4336V40.5195H73.1094V41.9609H69.0909V43.1824H73.0867V44.4528Z" fill="#9E0054"/>
<path fill-rule="evenodd" clip-rule="evenodd" d="M60.3937 47.1157L58.5916 42.7427V47.1157H56.9844V40.5195H59.3222L61.2461 45.2345L63.2186 40.5195H65.5321V47.1157H63.9248V42.7671L62.1228 47.1157H60.3937Z" fill="#9E0054"/>
<path fill-rule="evenodd" clip-rule="evenodd" d="M25.9753 0C25.7175 0 25.4598 0 25.1762 0C24.8927 0 24.6349 0 24.403 0C24.1967 0 23.9905 0.023676 23.7586 0.023676C23.7586 1.51526 23.5266 2.62803 23.2688 3.76448C22.9337 5.35077 22.5986 6.91338 22.9337 9.42304C23.3977 9.18628 23.6555 8.87849 23.939 8.54703C24.403 8.00248 24.9443 7.3869 26.4393 6.77133C26.2588 4.8299 26.3619 3.43302 26.465 1.91775C26.5166 1.32585 26.5424 0.710279 26.5939 0.023676C26.4135 0.023676 26.2073 0.023676 25.9753 0Z" fill="#9E0054"/>
</svg>
