<svg width="44" height="50" viewBox="0 0 44 50" fill="none" xmlns="http://www.w3.org/2000/svg">
<path d="M21.8439 49.4627C9.7648 49.4627 0 39.7897 0 27.8241C0 15.8585 9.7648 6.18555 21.8439 6.18555C33.88 6.18555 43.6878 15.8585 43.6878 27.8241C43.6878 39.7897 33.88 49.4627 21.8439 49.4627Z" fill="#7DBA00"/>
<path d="M8.74987 19.0622C10.4964 17.0679 12.5182 19.0622 13.7829 21.1417C14.7464 22.7013 15.667 24.9597 15.796 26.8262C15.8391 27.8659 15.667 28.9056 15.1422 29.7749C14.6604 30.559 13.9205 31.1215 13.086 31.4198C13.6108 34.0191 14.7034 35.9282 16.1058 37.1895C17.7662 38.7065 19.917 39.3542 22.0162 39.3116C24.1155 39.269 26.1286 38.4849 27.7117 37.0105C29.071 35.7066 30.0776 33.8487 30.4733 31.4624C28.1074 30.5079 27.3245 27.8659 28.1504 25.0449C28.5462 23.6132 29.2 22.1814 29.8969 21.099L29.9829 20.9286C30.069 21.278 30.198 21.6189 30.2926 21.9683C30.5077 23.0507 30.7314 24.312 30.8605 25.4796C31.1272 27.4312 31.2992 24.8745 31.2992 23.7921C31.2992 22.5734 31.1702 21.0138 30.9465 19.6758C31.1616 19.4201 31.4283 19.1985 31.6864 18.9855C31.8154 19.5479 31.9101 20.153 32.0391 20.7667C32.2542 22.0706 32.4349 23.3234 32.5639 24.7552C32.6069 25.4029 32.65 26.1017 32.693 26.7921C32.865 28.7011 33.1748 27.7466 33.3038 26.4853C33.4329 25.3177 33.4759 24.0137 33.4329 22.7098C33.3468 21.2354 33.2178 19.6758 32.9511 18.3292C33.2608 18.244 33.5619 18.2866 33.8716 18.3718C34.2674 20.6303 34.5255 23.1018 34.6201 26.0932C34.6201 26.9199 34.7492 27.4398 34.9298 27.2182C35.1535 26.954 35.3686 25.616 35.4116 23.3149C35.4547 22.3178 35.4547 21.1076 35.4116 19.8036C35.7644 20.3661 36.0225 21.0649 36.2462 21.7979C37.1237 24.9171 37.4764 30.6868 33.4415 31.684C33.1318 31.7692 32.7876 31.8118 32.4349 31.8118C31.9531 34.6328 30.7314 36.8401 29.0624 38.3997C27.1352 40.2235 24.6403 41.178 22.0593 41.2632C19.4783 41.3059 16.8542 40.4792 14.7894 38.6639C13.0774 37.1043 11.7267 34.8458 11.1588 31.7692C10.1523 31.7692 9.18867 31.4624 8.44877 30.8147C7.79487 30.167 7.31317 29.3403 7.04647 28.4284C6.56467 26.6898 6.73667 24.2694 7.13247 22.5308C7.44217 21.1843 8.00997 19.8888 8.74987 19.0622Z" fill="white"/>
<path d="M12.2083 3.71372C13.5676 3.23642 14.8323 2.88703 16.2346 2.50353L19.5211 6.27893V0.0746256L20.1749 0.032025C21.1815 -0.010675 22.1881 -0.010675 23.1947 0.032025L23.8486 0.0746256V6.27893L27.135 2.50353C28.4944 2.89553 29.8021 3.23642 31.1614 3.71372L26.5672 8.96352C26.3005 9.31292 25.9564 9.61123 25.6036 9.91803C24.425 10.9152 23.0226 11.3924 21.5773 11.3498C20.347 11.3498 18.9963 10.9578 17.723 9.91803C17.4133 9.61123 17.1122 9.31292 16.7594 8.96352L12.2083 3.71372Z" fill="#299926"/>
</svg>
