<svg width="246" height="35" viewBox="0 0 246 35" fill="none" xmlns="http://www.w3.org/2000/svg">
<g clip-path="url(#clip0_699_2659)">
<mask id="mask0_699_2659" style="mask-type:luminance" maskUnits="userSpaceOnUse" x="0" y="0" width="246" height="35">
<path d="M246 0H0V35H246V0Z" fill="white"/>
</mask>
<g mask="url(#mask0_699_2659)">
<path d="M38.7036 12.2207H30.0562V20.6551H38.7036V12.2207Z" fill="#0095D9"/>
<path d="M23.6157 34.7389V11.9395H27.5913V22.3777H45.8204V11.9395H49.7959V34.7389H45.8204V24.7418H27.5913V34.7389H23.6157Z" fill="black"/>
<path d="M38.7036 26.3848H30.0562V34.8199H38.7036V26.3848Z" fill="#0095D9"/>
<path d="M21.0909 12.2207H12.4434V21.0354H21.0909V12.2207Z" fill="#0095D9"/>
<path d="M21.0909 26.0244H12.4434V34.8193H21.0909V26.0244Z" fill="#0095D9"/>
<path d="M8.64746 12.2207H0V21.0354H8.64746V12.2207Z" fill="#0095D9"/>
<path d="M8.64746 26.2051H0V35H8.64746V26.2051Z" fill="#0095D9"/>
<path d="M58.3643 28.6685H64.964L61.7234 22.4384L58.3643 28.6685ZM51.625 34.7997L60.1532 19.4531H63.5327L72.1598 34.7997H68.2236L66.4149 31.4539H56.8733L55.1237 34.7997H51.625Z" fill="black"/>
<path fill-rule="evenodd" clip-rule="evenodd" d="M75.7578 34.9392V19.5332H79.2761V32.0344H88.8577V19.5332H92.3964V32.0344H101.978V19.5332H105.496V34.9392H103.727H101.978H90.627H88.8577H75.7578Z" fill="black"/>
<path d="M126.568 34.9389V19.5322H124.163L113.508 28.6077C113.15 28.9088 112.832 29.1887 112.554 29.47C112.276 29.73 112.017 30.0106 111.799 30.2714C111.858 29.4092 111.878 28.8091 111.898 28.448C111.918 28.0875 111.938 27.807 111.938 27.6069V19.5329H108.778V34.9396H111.183L122.296 25.4231C122.554 25.1828 122.793 24.963 122.991 24.7615C123.19 24.5615 123.369 24.3615 123.548 24.1601C123.508 24.6414 123.469 25.0824 123.448 25.5022C123.408 25.9432 123.408 26.3037 123.408 26.6048V34.9389H126.568Z" fill="black"/>
<path d="M150.86 23.1586C150.86 21.7762 151.118 20.815 151.635 20.2934C152.151 19.793 153.146 19.5322 154.597 19.5322H165.689C167.14 19.5322 168.134 19.793 168.651 20.2934C169.168 20.8143 169.426 21.7762 169.426 23.1586V31.2524C169.426 32.6546 169.168 33.596 168.651 34.0971C168.135 34.6173 167.14 34.8781 165.689 34.8781H154.597C153.146 34.8781 152.152 34.6173 151.635 34.0971C151.118 33.596 150.86 32.6546 150.86 31.2524V23.1586ZM154.378 31.974H165.929V22.2773H154.378V31.974ZM173.641 34.8788V19.5322H177.18V25.9234L185.529 19.5322H190.598L180.62 26.7645L191.831 34.8781H186.205L177.181 28.1264V34.8781L173.641 34.8788ZM194.713 34.8788V19.5322H198.211V25.4824H209.144V19.5322H212.683V34.8788H209.144V28.2678H198.211V34.8788H194.713ZM222.146 28.7491H228.725L225.485 22.5183L222.146 28.7491ZM215.386 34.8788L223.915 19.5322H227.294L235.941 34.8788H232.005L230.196 31.5125H220.635L218.885 34.8788H215.386Z" fill="black"/>
<path d="M246 27.8076H239.141V34.7798H246V27.8076Z" fill="#0095D9"/>
<path d="M38.7036 0H30.0562V8.79491H38.7036V0Z" fill="#0095D9"/>
</g>
</g>
<defs>
<clipPath id="clip0_699_2659">
<rect width="246" height="35" fill="white"/>
</clipPath>
</defs>
</svg>
