<svg width="176" height="50" viewBox="0 0 176 50" fill="none" xmlns="http://www.w3.org/2000/svg">
<g clip-path="url(#clip0_722_618)">
<path d="M134.141 14.504L140.392 9.83203H119.458V37.8212H140.392V33.1454H125.437V26.0016H138.219V21.3296H125.437V14.504H134.141Z" fill="#21A038"/>
<path d="M103.641 20.732H96.3886V14.504H107.991L114.246 9.83203H90.4089V37.8212H102.869C109.85 37.8212 113.881 34.6121 113.881 29.0244C113.881 23.6656 110.257 20.732 103.641 20.732ZM102.644 33.1454H96.3886V25.404H102.644C106.45 25.404 108.216 26.6884 108.216 29.2999C108.216 31.9114 106.315 33.1454 102.644 33.1454Z" fill="#21A038"/>
<path d="M157.342 9.83203H145.968V37.8212H151.948V29.8936H157.388C164.637 29.8936 169.169 26.0481 169.169 19.8628C169.169 13.6775 164.637 9.83203 157.342 9.83203ZM157.206 25.2216H151.905V14.504H157.206C161.059 14.504 163.143 16.4287 163.143 19.8628C163.143 23.297 161.059 25.2216 157.206 25.2216Z" fill="#21A038"/>
<path d="M80.1647 31.7712C78.5815 32.6443 76.8121 33.1022 74.9999 33.1022C69.6062 33.1022 65.7103 29.2063 65.7103 23.8475C65.7103 18.4887 69.6062 14.5928 74.9999 14.5928C76.9479 14.5501 78.8531 15.1903 80.4363 16.335L84.7436 13.1299L84.4719 12.8543C81.9807 10.6076 78.6242 9.46289 74.8175 9.46289C70.6966 9.46289 66.9326 10.8831 64.2163 13.448C61.4962 16.1061 59.9557 19.8157 60.0449 23.6651C59.9984 27.5571 61.4962 31.3133 64.2163 34.0606C67.0684 36.7652 70.8751 38.2786 74.7749 38.1855C79.0782 38.1855 82.8383 36.6721 85.3761 33.9248L81.5267 31.0378L80.1647 31.7712Z" fill="#21A038"/>
<path d="M41.3298 9.64941C42.4163 11.0696 43.3243 12.6257 44.0926 14.2748L23.1579 29.8934L14.365 24.3056V17.6197L23.1114 23.1609L41.3298 9.64941Z" fill="#21A038"/>
<path d="M5.43634 23.8475C5.43634 23.5255 5.43634 23.2538 5.48291 22.9318L0.182307 22.6562C0.182307 23.0249 0.135742 23.4362 0.135742 23.801C0.135742 30.2152 2.72008 36.0319 6.8876 40.246L10.6477 36.4432C7.43086 33.238 5.43634 28.795 5.43634 23.8475Z" fill="url(#paint0_linear_722_618)"/>
<path d="M23.1116 5.98283C23.4298 5.98283 23.7014 5.98283 24.0196 6.02939L24.2912 0.670587C23.9264 0.670587 23.519 0.624023 23.1581 0.624023C16.8137 0.624023 11.0591 3.23552 6.8877 7.44961L10.6478 11.2524C13.8219 8.00063 18.2611 5.98283 23.1116 5.98283Z" fill="url(#paint1_linear_722_618)"/>
<path d="M23.1115 41.7129C22.7933 41.7129 22.5217 41.7129 22.2035 41.6664L21.9319 47.0252C22.2966 47.0252 22.7041 47.0717 23.065 47.0717C29.4094 47.0717 35.1679 44.4602 39.3354 40.2461L35.5753 36.4434C32.4012 39.7417 28.0047 41.7129 23.1115 41.7129Z" fill="url(#paint2_linear_722_618)"/>
<path d="M33.0803 9.09847L37.566 5.75358C33.6235 2.54838 28.5945 0.577148 23.1116 0.577148V5.93596C26.829 5.98252 30.2709 7.12723 33.0803 9.09847Z" fill="url(#paint3_linear_722_618)"/>
<path d="M46.1337 23.8482C46.1337 22.428 45.9979 21.0543 45.7689 19.6807L40.8292 23.3903C40.8292 23.5261 40.8292 23.7124 40.8292 23.8482C40.8292 29.1177 38.5631 33.8363 34.9854 37.0881L38.5631 41.0732C43.1885 36.8591 46.1337 30.6738 46.1337 23.8482Z" fill="#21A038"/>
<path d="M23.1115 41.7135C17.9002 41.7135 13.2321 39.4241 10.0152 35.8037L6.07275 39.4241C10.2868 44.1426 16.3596 47.0723 23.1115 47.0723V41.7135Z" fill="url(#paint4_linear_722_618)"/>
<path d="M11.2841 10.6082L7.70248 6.62305C3.03439 10.8837 0.135742 17.0225 0.135742 23.8481H5.43634C5.43634 18.6251 7.70248 13.8638 11.2841 10.6082Z" fill="url(#paint5_linear_722_618)"/>
</g>
<defs>
<linearGradient id="paint0_linear_722_618" x1="6.32236" y1="39.5945" x2="0.878423" y2="23.7871" gradientUnits="userSpaceOnUse">
<stop offset="0.1444" stop-color="#F2E913"/>
<stop offset="0.3037" stop-color="#E7E518"/>
<stop offset="0.5823" stop-color="#CADB26"/>
<stop offset="0.891" stop-color="#A3CD39"/>
</linearGradient>
<linearGradient id="paint1_linear_722_618" x1="8.39961" y1="6.84467" x2="22.1545" y2="1.57915" gradientUnits="userSpaceOnUse">
<stop offset="0.0592" stop-color="#0FA8E0"/>
<stop offset="0.5385" stop-color="#0099F9"/>
<stop offset="0.9234" stop-color="#0291EB"/>
</linearGradient>
<linearGradient id="paint2_linear_722_618" x1="21.6222" y1="42.5139" x2="38.0121" y2="38.793" gradientUnits="userSpaceOnUse">
<stop offset="0.1226" stop-color="#A3CD39"/>
<stop offset="0.2846" stop-color="#86C339"/>
<stop offset="0.8693" stop-color="#21A038"/>
</linearGradient>
<linearGradient id="paint3_linear_722_618" x1="22.0224" y1="3.99165" x2="35.6527" y2="8.2163" gradientUnits="userSpaceOnUse">
<stop offset="0.0566" stop-color="#0291EB"/>
<stop offset="0.79" stop-color="#0C8ACB"/>
</linearGradient>
<linearGradient id="paint4_linear_722_618" x1="7.42062" y1="40.2719" x2="22.0644" y2="45.7682" gradientUnits="userSpaceOnUse">
<stop offset="0.1324" stop-color="#F2E913"/>
<stop offset="0.2977" stop-color="#EBE716"/>
<stop offset="0.5306" stop-color="#D9E01F"/>
<stop offset="0.8023" stop-color="#BBD62D"/>
<stop offset="0.9829" stop-color="#A3CD39"/>
</linearGradient>
<linearGradient id="paint5_linear_722_618" x1="4.19847" y1="24.4956" x2="10.0831" y2="9.11819" gradientUnits="userSpaceOnUse">
<stop offset="0.0698" stop-color="#A3CD39"/>
<stop offset="0.2599" stop-color="#81C55F"/>
<stop offset="0.9216" stop-color="#0FA8E0"/>
</linearGradient>
<clipPath id="clip0_722_618">
<rect width="176" height="50" fill="white"/>
</clipPath>
</defs>
</svg>
